<?xml version="1.0" standalone="no"?>
<!DOCTYPE svg PUBLIC "-//W3C//DTD SVG 1.1//EN" "http://www.w3.org/Graphics/SVG/1.1/DTD/svg11.dtd" >
<svg xmlns="http://www.w3.org/2000/svg" xmlns:xlink="http://www.w3.org/1999/xlink" version="1.1">
<metadata>
Created by FontForge 20170731 at Fri Jan  1 02:30:17 1904
 By Aleksey,,,
Copr.1990 Emigre Graphics
</metadata>
<defs>
<font id="Matrix-Bold" horiz-adv-x="458" >
  <font-face 
    font-family="Matrix"
    font-weight="700"
    font-stretch="normal"
    units-per-em="1000"
    panose-1="2 11 8 0 0 0 0 0 0 0"
    ascent="800"
    descent="-200"
    x-height="415"
    cap-height="590"
    bbox="-114 -180 821 791"
    underline-thickness="58"
    underline-position="-144"
    unicode-range="U+0020-2122"
  />
<missing-glyph horiz-adv-x="502" 
d="M-1 0h500v500h-500v-500zM9 10v480h480v-480h-480z" />
    <glyph glyph-name=".notdef" horiz-adv-x="502" 
d="M-1 0h500v500h-500v-500zM9 10v480h480v-480h-480z" />
    <glyph glyph-name=".null" horiz-adv-x="0" 
 />
    <glyph glyph-name="nonmarkingreturn" horiz-adv-x="333" 
 />
    <glyph glyph-name="space" unicode=" " horiz-adv-x="250" 
 />
    <glyph glyph-name="exclam" unicode="!" horiz-adv-x="271" 
d="M97 154h81l30 469h-140zM200 54q0 26 -18 44.5t-44 18.5t-44.5 -18.5t-18.5 -44.5t18.5 -44t44.5 -18t44 18t18 44z" />
    <glyph glyph-name="quotedbl" unicode="&#x22;" horiz-adv-x="401" 
d="M172 553q2 7 2 14q0 23 -19 42t-44 19t-44 -19t-19 -42q0 -7 2 -14l61 -183zM351 553q2 7 2 14q0 23 -19 42t-44 19t-44 -19t-19 -42q0 -7 2 -14l61 -183z" />
    <glyph glyph-name="numbersign" unicode="#" horiz-adv-x="292" 
d="M50 471h43l-16 -81h-42l-14 -73h41l-16 -79h40l16 79h60l-16 -79h40l16 79h42l14 73h-41l15 81h41l15 73h-41l16 79h-40l-16 -79h-60l16 79h-40l-16 -79h-43zM132 471h60l-15 -81h-60z" />
    <glyph glyph-name="dollar" unicode="$" horiz-adv-x="363" 
d="M163 48v-90h57v90h-57zM163 673v-90h57v90h-57zM298 336l-142 79q-14 7 -18 15t-4 15q0 25 21 41.5t43 16.5q21 0 33 -14l57 -74l63 90l-117 35q-30 8 -50 8q-60 0 -104 -38.5t-44 -108.5q0 -29 12.5 -55.5t41.5 -41.5l154 -79q5 -2 9.5 -9t4.5 -19q0 -29 -22 -49
t-47 -20q-15 0 -26 5.5t-15 9.5l-60 78l-68 -90l125 -39q6 -2 21 -5t34 -3q67 0 110 40.5t43 106.5q0 39 -16 65.5t-39 39.5z" />
    <glyph glyph-name="percent" unicode="%" horiz-adv-x="479" 
d="M129 358q48 0 82 34.5t34 81.5q0 36 -23 68h131l-290 -409v-133h49v45l312 442v103h-295q-47 0 -81.5 -34t-34.5 -82q0 -47 34.5 -81.5t81.5 -34.5zM238 116q0 -47 34.5 -81.5t81.5 -34.5q48 0 82 34.5t34 81.5t-34 81.5t-82 34.5q-47 0 -81.5 -34.5t-34.5 -81.5z
M129 386q-23 0 -30.5 24.5t-7.5 63.5t7.5 64t30.5 25t31 -25t8 -64q0 -38 -8 -63t-31 -25zM354 28q-23 0 -30.5 24.5t-7.5 63.5t7.5 63.5t30.5 24.5t31 -25t8 -63t-8 -63t-31 -25z" />
    <glyph glyph-name="ampersand" unicode="&#x26;" horiz-adv-x="521" 
d="M191 447q0 45 27 73.5t60 28.5q22 0 31 -4t26 -21l93 -93v131q-39 22 -78.5 30.5t-86.5 8.5q-36 0 -70.5 -7t-64 -23.5t-47.5 -46.5t-18 -74q0 -37 18.5 -73t59.5 -59q-52 -19 -84 -61t-32 -98q0 -42 23.5 -74.5t61 -54t79.5 -32t77 -10.5q70 0 107 12.5t81 40.5l4 3v220
l59 59h-183v-241q-16 -19 -31 -27.5t-37 -8.5q-52 0 -80 36.5t-28 90.5q0 53 39.5 90t97.5 37v32q-26 2 -46 14t-33 30t-19 37t-6 34z" />
    <glyph glyph-name="quotesingle" unicode="'" horiz-adv-x="228" 
d="M175 553q2 6 2 14q0 24 -19 42.5t-44 18.5t-44 -19t-19 -43q0 -7 2 -13l61 -183z" />
    <glyph glyph-name="parenleft" unicode="(" horiz-adv-x="290" 
d="M263 674q-110 -68 -165.5 -161.5t-55.5 -217.5t55.5 -217.5t165.5 -161.5l19 29q-35 45 -57.5 83t-36.5 78t-20.5 85.5t-6.5 103.5t6.5 103.5t20.5 85t36.5 78t57.5 83.5z" />
    <glyph glyph-name="parenright" unicode=")" horiz-adv-x="290" 
d="M248 295q0 124 -55 217.5t-165 161.5l-20 -29q35 -45 57.5 -83t36.5 -78t20.5 -85.5t6.5 -103.5t-6.5 -103.5t-20.5 -85t-36.5 -78t-57.5 -83.5l20 -29q110 68 165 161.5t55 217.5z" />
    <glyph glyph-name="asterisk" unicode="*" horiz-adv-x="338" 
d="M33 519l85 -28l-85 -28l33 -72l79 56l-7 -89h61l-6 89l79 -56l32 72l-86 28l86 28l-32 72l-79 -56l6 88h-61l7 -88l-79 56z" />
    <glyph glyph-name="plus" unicode="+" horiz-adv-x="365" 
d="M46 200h102v-102h69v102h102v69h-102v102h-69v-102h-102v-69z" />
    <glyph glyph-name="comma" unicode="," horiz-adv-x="271" 
d="M176 27q8 12 8 27q0 24 -17.5 43.5t-45.5 19.5q-25 0 -43.5 -19t-18.5 -44v-194z" />
    <glyph glyph-name="hyphen" unicode="-" horiz-adv-x="332" 
d="M46 200h240v69h-240v-69z" />
    <glyph glyph-name="period" unicode="." horiz-adv-x="271" 
d="M121 -8q28 0 47.5 19.5t19.5 46.5q0 28 -19.5 47.5t-47.5 19.5t-47.5 -19.5t-19.5 -47.5q0 -27 19.5 -46.5t47.5 -19.5z" />
    <glyph glyph-name="slash" unicode="/" horiz-adv-x="358" 
d="M16 0h95l252 632h-95z" />
    <glyph glyph-name="zero" unicode="0" horiz-adv-x="515" 
d="M29 212q0 -46 17.5 -88t49.5 -74t74 -49.5t88 -17.5t87.5 17.5t73.5 49.5t49.5 74t17.5 88t-17.5 88t-49 73.5t-73.5 49t-88 17.5t-88 -17.5t-74 -49.5t-49.5 -73.5t-17.5 -87.5zM258 32q-27 0 -44 16t-26 42.5t-12 56.5t-3 65t3 65.5t12 56.5t26 42t44 16t44 -16
t25.5 -42t11.5 -56.5t3 -65.5t-3 -65t-11.5 -56.5t-25.5 -42.5t-44 -16z" />
    <glyph glyph-name="one" unicode="1" horiz-adv-x="317" 
d="M279 423h-241l59 -59v-305l-59 -59h241l-59 59v305z" />
    <glyph glyph-name="two" unicode="2" horiz-adv-x="417" 
d="M53 362l30 -29l48 30q16 10 33 10q35 0 56 -25t21 -52q0 -19 -6.5 -36t-24.5 -33l-188 -168v-59h352v133l-46 -47h-201l183 136q19 13 35 37.5t16 60.5q0 48 -35.5 85.5t-102.5 37.5q-56 0 -95 -29z" />
    <glyph glyph-name="three" unicode="3" horiz-adv-x="383" 
d="M76 138q26 0 51 -10t44.5 -28t30.5 -41.5t11 -50.5q0 -30 -13 -55t-35.5 -43t-51.5 -27.5t-59 -9.5h-41v-40h41q52 0 102.5 9.5t94 30.5t69 55t25.5 80q0 55 -38 94t-95 52q52 16 83 57t31 91q0 60 -49 98t-124 38q-69 0 -121 -32l-24 -15l29 -29q6 4 21 10t37 6
q48 0 76.5 -29.5t28.5 -63.5q0 -18 -8.5 -38.5t-24.5 -38.5t-39.5 -29t-51.5 -11v-30z" />
    <glyph glyph-name="four" unicode="4" horiz-adv-x="442" 
d="M234 -167h124v167h62v61h-62v367h-60l-285 -395v-33h221v-167zM234 61h-124l124 174v-174z" />
    <glyph glyph-name="five" unicode="5" horiz-adv-x="404" 
d="M180 186h-81v131h216l45 106h-313v-315h94q44 0 73 -19.5t29 -55.5q0 -25 -16 -53.5t-42.5 -53t-58.5 -39t-63 -14.5h-25v-40h25q44 0 99 16.5t104.5 46.5t80.5 69.5t31 82.5q0 35 -17.5 61t-46.5 43t-64 25.5t-70 8.5z" />
    <glyph glyph-name="six" unicode="6" horiz-adv-x="488" 
d="M271 369q-37 0 -64 -16.5t-44 -43.5q13 80 36.5 131.5t51 78t50.5 36t49 15.5q11 2 13 3l-10 30q-13 1 -25 1q-65 0 -121 -33t-95.5 -89t-61 -123.5t-21.5 -135.5q0 -104 60 -170t161 -66q33 0 70 14t68.5 40t50.5 62t19 77q0 43 -16 78t-43.5 60t-60.5 38t-67 13z
M327 167q0 -55 -20.5 -93t-56.5 -38q-97 0 -97 175q0 17 1 26t2 11q7 26 36 45t56 19q28 0 44.5 -14.5t24 -37t9 -44t1.5 -49.5z" />
    <glyph glyph-name="seven" unicode="7" horiz-adv-x="400" 
d="M26 253l59 60h209l-208 -480h122v57l185 529h-367v-166z" />
    <glyph glyph-name="eight" unicode="8" horiz-adv-x="496" 
d="M361 317q38 19 61 54t23 77q0 33 -16 61.5t-44.5 49.5t-64 32.5t-72.5 11.5t-72.5 -11.5t-63 -32.5t-44 -49.5t-16.5 -61.5q0 -41 22.5 -76.5t60.5 -56.5q-50 -21 -76 -61.5t-26 -95.5q0 -39 18 -71t49 -54.5t69.5 -34t78.5 -11.5t79 11.5t70 34t49 54.5t18 71
q0 55 -26.5 96t-76.5 63zM160 158q0 51 23 90.5t65 39.5t65.5 -39.5t23.5 -90.5q0 -48 -24 -85t-65 -37q-40 0 -64 36.5t-24 85.5zM316 437q0 -38 -18 -69.5t-50 -31.5q-31 0 -49 31.5t-18 69.5q0 50 16 83.5t51 33.5q36 0 52 -33.5t16 -83.5z" />
    <glyph glyph-name="nine" unicode="9" horiz-adv-x="488" 
d="M217 58q37 0 63 16.5t45 43.5q-12 -80 -36 -131.5t-52 -78t-51 -36t-49 -14.5q-9 -2 -12 -3l10 -31q13 -1 25 -1q66 0 121 33t95 89t61 124t21 135q0 105 -59.5 170.5t-160.5 65.5q-34 0 -70.5 -14t-68.5 -40t-51 -61.5t-19 -76.5q0 -43 16 -78.5t43.5 -60.5t61 -38
t67.5 -13zM161 261q0 55 20.5 93t56.5 38q97 0 97 -175q0 -17 -1 -26.5t-2 -11.5q-7 -26 -36 -44.5t-57 -18.5q-27 0 -43.5 14t-24 36.5t-9 44t-1.5 50.5z" />
    <glyph glyph-name="colon" unicode=":" horiz-adv-x="271" 
d="M121 -8q28 0 47.5 19.5t19.5 46.5q0 28 -19.5 47.5t-47.5 19.5t-47.5 -19.5t-19.5 -47.5q0 -27 19.5 -46.5t47.5 -19.5zM121 238q28 0 47.5 19.5t19.5 46.5q0 28 -19.5 47.5t-47.5 19.5t-47.5 -19.5t-19.5 -47.5q0 -27 19.5 -46.5t47.5 -19.5z" />
    <glyph glyph-name="semicolon" unicode=";" horiz-adv-x="271" 
d="M176 27q8 12 8 27q0 24 -17.5 43.5t-45.5 19.5q-25 0 -43.5 -19t-18.5 -44v-194zM121 238q28 0 47.5 19.5t19.5 46.5q0 28 -19.5 47.5t-47.5 19.5t-47.5 -19.5t-19.5 -47.5q0 -27 19.5 -46.5t47.5 -19.5z" />
    <glyph glyph-name="less" unicode="&#x3c;" horiz-adv-x="415" 
d="M237 538l116 -167v194q0 25 -18 44t-43 19q-28 0 -45.5 -19.5t-17.5 -42.5q0 -16 8 -28zM58 538l116 -167v194q0 25 -18 44t-43 19q-28 0 -45.5 -19.5t-17.5 -42.5q0 -16 8 -28z" />
    <glyph glyph-name="equal" unicode="=" horiz-adv-x="332" 
d="M46 269h240v69h-240v-69zM46 131h240v69h-240v-69z" />
    <glyph glyph-name="greater" unicode="&#x3e;" horiz-adv-x="415" 
d="M180 538q8 12 8 28q0 23 -17.5 42.5t-45.5 19.5q-25 0 -43.5 -19t-18.5 -44v-194zM359 538q8 12 8 28q0 23 -17.5 42.5t-45.5 19.5q-25 0 -43 -19t-18 -44v-194z" />
    <glyph glyph-name="question" unicode="?" horiz-adv-x="450" 
d="M67 493l69 74q13 6 22 8.5t22 2.5q36 0 71 -28t35 -76q0 -19 -8.5 -40t-21.5 -36l-97 -114v-121h49v39l182 191q11 11 19.5 28.5t8.5 45.5q0 25 -10 53.5t-32 55.5t-59.5 44t-89.5 17q-23 0 -39 -1.5t-44 -5.5q-8 -1 -11 -2l-130 -22zM250 54q0 26 -18 44.5t-44 18.5
t-44.5 -18.5t-18.5 -44.5t18.5 -44t44.5 -18t44 18t18 44z" />
    <glyph glyph-name="at" unicode="@" horiz-adv-x="625" 
d="M480 250q0 -40 -13 -74.5t-34.5 -61.5t-47 -47t-51.5 -34l81 302l-106 -55q-9 23 -30.5 40t-50.5 17q-31 0 -63 -21t-58.5 -55t-42.5 -73.5t-16 -73.5q0 -62 26.5 -95t63.5 -33q29 0 59 18t50 42l73 -61q41 7 86.5 32t85 63.5t64 87.5t24.5 101q0 32 -11.5 67.5t-39 68.5
t-74.5 54t-115 21q-65 0 -125.5 -33t-107.5 -81l9 -20q43 37 90 57t95 20q30 0 61.5 -11t58.5 -33t43 -54.5t16 -74.5zM255 92q-11 -24 -32.5 -39t-44.5 -15q-15 0 -23 10.5t-8 24.5q0 22 7 58t20 71t31 58.5t40 23.5q48 0 48 -49z" />
    <glyph glyph-name="A" unicode="A" horiz-adv-x="533" 
d="M175 0l-62 63l35 100h177l33 -100l-62 -63h254l-64 64l-183 526h-76l-188 -526l-64 -64h200zM169 223l69 195l65 -195h-134z" />
    <glyph glyph-name="B" unicode="B" horiz-adv-x="512" 
d="M17 0h250q41 0 79.5 8t70.5 26t51 48t19 71q0 26 -11 51.5t-30.5 46.5t-45 35.5t-53.5 18.5q45 13 78 51t33 72q0 43 -18 74.5t-48.5 51t-67.5 28t-78 8.5h-229l63 -63v-464zM203 529h43q39 0 61.5 -27t22.5 -74q0 -46 -22.5 -73t-61.5 -27h-43v201zM267 61h-64v206h64
q41 0 66.5 -34t25.5 -80t-25.5 -69t-66.5 -23z" />
    <glyph glyph-name="C" unicode="C" horiz-adv-x="486" 
d="M295 603q-56 0 -105.5 -25t-86.5 -69t-57.5 -99.5t-20.5 -114.5t20.5 -114.5t57.5 -99.5t86.5 -69t105.5 -25q54 0 89.5 6.5t76.5 28.5v148l-93 -93q-29 -29 -73 -29q-38 0 -63.5 22t-39 58t-18.5 78t-5 89q0 50 4.5 92t17.5 78t38.5 58.5t65.5 22.5q44 0 73 -28l93 -94
v144q-42 22 -75.5 28.5t-90.5 6.5z" />
    <glyph glyph-name="D" unicode="D" horiz-adv-x="583" 
d="M17 0h271q57 0 107 23.5t86.5 65t56.5 95t20 111.5t-20 111.5t-56.5 95t-86.5 65t-107 23.5h-271l63 -63v-464zM203 61v468h64q38 0 66 -20t46 -54t26 -75.5t8 -84.5t-8 -84t-26 -75.5t-46 -54.5t-66 -20h-64z" />
    <glyph glyph-name="E" unicode="E" 
d="M433 0v141l-80 -80h-150v222h104l63 -63v188l-63 -64h-104v185h150l80 -80v141h-416l63 -63v-464l-63 -63h416z" />
    <glyph glyph-name="F" unicode="F" horiz-adv-x="438" 
d="M17 0h250l-64 63v220h104l63 -63v188l-63 -64h-104v185h150l80 -80v141h-416l63 -63v-464z" />
    <glyph glyph-name="G" unicode="G" horiz-adv-x="583" 
d="M333 -13q61 0 101.5 8.5t88.5 34.5v230l60 59h-242l59 -59v-185q-2 -1 -6 -6q-12 -13 -25 -21t-36 -8q-46 0 -78.5 22t-51 58.5t-26.5 81t-8 93.5q0 45 10 90t30 81.5t51.5 58t72.5 21.5q23 0 39.5 -6.5t32.5 -21.5l93 -94v144q-43 21 -77.5 28t-87.5 7q-59 0 -115 -24.5
t-99.5 -68t-68.5 -99.5t-25 -116t25 -116t69 -99.5t99.5 -68t114.5 -24.5z" />
    <glyph glyph-name="H" unicode="H" horiz-adv-x="596" 
d="M393 288v-225l-64 -63h250l-63 63v464l63 63h-250l64 -63v-179h-190v179l64 63h-250l63 -63v-464l-63 -63h250l-64 63v225h190z" />
    <glyph glyph-name="I" unicode="I" horiz-adv-x="300" 
d="M25 590l63 -63v-464l-63 -63h250l-63 63v464l63 63h-250z" />
    <glyph glyph-name="J" unicode="J" horiz-adv-x="313" 
d="M42 590l63 -63v-585q0 -45 -45 -60l-73 72l-89 -121h167q35 0 65 14.5t52 39.5t34 57.5t12 67.5v515l64 63h-250z" />
    <glyph glyph-name="K" unicode="K" horiz-adv-x="558" 
d="M203 63v244l177 -246v-61h197l-260 357l233 233h-196l58 -57l-209 -209v203l64 63h-250l63 -63v-464l-63 -63h250z" />
    <glyph glyph-name="L" unicode="L" horiz-adv-x="429" 
d="M344 61h-141v466l64 63h-250l63 -63v-464l-63 -63h407v141z" />
    <glyph glyph-name="M" unicode="M" horiz-adv-x="704" 
d="M213 0l-64 63v395l176 -315l176 315v-395l-63 -63h250l-64 63v464l64 63h-185l-145 -256l-144 256h-197l63 -63v-464l-63 -63h196z" />
    <glyph glyph-name="N" unicode="N" horiz-adv-x="563" 
d="M149 63v368l346 -500v596l63 63h-195l63 -63v-289l-245 352h-164l63 -63v-464l-63 -63h196z" />
    <glyph glyph-name="O" unicode="O" horiz-adv-x="590" 
d="M25 295q0 -60 19.5 -116.5t55.5 -100.5t86 -69.5t109 -25.5t109 25.5t86 69.5t55.5 100.5t19.5 116.5t-19 116.5t-55.5 100.5t-86.5 69.5t-109 25.5t-109 -25.5t-86 -69.5t-55.5 -100.5t-19.5 -116.5zM295 44q-38 0 -63 22.5t-38.5 59t-19 79.5t-5.5 90q0 48 5.5 91
t18.5 79t38.5 58.5t63.5 22.5t63.5 -22.5t39 -59t18.5 -79t5 -90.5q0 -47 -5 -90.5t-18.5 -79.5t-39 -58.5t-63.5 -22.5z" />
    <glyph glyph-name="P" unicode="P" horiz-adv-x="521" 
d="M17 0h250l-64 63v179h64q44 0 87 11t78 33t55.5 55t20.5 75t-20.5 75t-55.5 55t-77.5 33t-87.5 11h-250l63 -63v-464zM267 303h-64v226h64q44 0 74.5 -33.5t30.5 -79.5q0 -45 -30.5 -79t-74.5 -34z" />
    <glyph glyph-name="Q" unicode="Q" horiz-adv-x="590" 
d="M570 40h-120q58 49 86.5 118t28.5 137q0 59 -19.5 115.5t-55.5 101t-86 70t-109 25.5t-109 -25.5t-86 -69.5t-55.5 -100.5t-19.5 -116.5t19.5 -116.5t55.5 -100.5t86 -69.5t108 -25.5l173 -46zM295 44q-38 0 -63 22.5t-38.5 59t-19 79.5t-5.5 90q0 48 5.5 91t18.5 79
t38.5 58.5t63.5 22.5t63.5 -22.5t39 -59t18.5 -79t5 -90.5q0 -47 -5 -90.5t-18.5 -79.5t-39 -58.5t-63.5 -22.5z" />
    <glyph glyph-name="R" unicode="R" horiz-adv-x="521" 
d="M487 63l-124 226q42 15 76.5 52.5t34.5 91.5q0 39 -19.5 69t-53 49.5t-73.5 29t-82 9.5h-229l63 -63v-464l-63 -63h250l-64 63v204h42l132 -267h173zM203 529h43q39 0 65.5 -28.5t26.5 -67.5q0 -42 -26.5 -73.5t-65.5 -31.5h-43v201z" />
    <glyph glyph-name="S" unicode="S" horiz-adv-x="421" 
d="M403 170q0 49 -22 83t-53 53l-142 87q-28 18 -41.5 40t-13.5 43q0 24 21.5 46t55.5 22q23 0 45 -14l69 -74l63 112l-129 22q-12 2 -28 3.5t-27 1.5q-46 0 -80.5 -13.5t-57 -36.5t-33 -51.5t-10.5 -59.5q0 -15 4 -33t14 -39t28.5 -41.5t45.5 -36.5l141 -87q15 -10 25 -26
t10 -41q0 -44 -27.5 -68t-61.5 -24q-30 0 -54 18l-74 83l-63 -121l134 -22q26 -5 63 -5q51 0 89.5 15t62.5 40.5t35 57t11 66.5z" />
    <glyph glyph-name="T" unicode="T" horiz-adv-x="473" 
d="M298 63v466h83l80 -80v141h-448v-141l80 80h82v-466l-63 -63h250z" />
    <glyph glyph-name="U" unicode="U" horiz-adv-x="558" 
d="M72 158q0 -40 17.5 -72.5t47.5 -55.5t67 -35t75 -12q41 0 78.5 12.5t66.5 36t46 56t17 70.5v369l63 63h-200l63 -63v-369q0 -45 -32 -77.5t-77 -32.5t-77 32.5t-32 77.5v369l63 63h-250l64 -63v-369z" />
    <glyph glyph-name="V" unicode="V" horiz-adv-x="500" 
d="M238 590h-255l65 -64l166 -526h76l171 526l64 64h-200l63 -62l-109 -355l-104 355z" />
    <glyph glyph-name="W" unicode="W" horiz-adv-x="796" 
d="M290 0l112 343l108 -343h76l171 526l64 64h-200l62 -62l-108 -355l-104 355l62 62h-254l64 -63l23 -72l-87 -282l-104 355l63 62h-255l65 -64l166 -526h76z" />
    <glyph glyph-name="X" unicode="X" horiz-adv-x="542" 
d="M64 526l150 -253l-154 -209l-64 -64h204l-62 63l110 151q5 -8 13 -22t39.5 -66.5t37.5 -63.5v-62h208l-64 64l-154 259l150 203l64 64h-204l62 -62l-107 -146l-85 146v62h-208z" />
    <glyph glyph-name="Y" unicode="Y" horiz-adv-x="504" 
d="M48 526l149 -260v-203l-64 -63h250l-63 63v203l145 260l64 64h-196l63 -62l-104 -192l-104 192l62 62h-267z" />
    <glyph glyph-name="Z" unicode="Z" horiz-adv-x="436" 
d="M101 529h163l-250 -529h401v141l-80 -80h-163l250 529h-401v-141z" />
    <glyph glyph-name="bracketleft" unicode="[" horiz-adv-x="233" 
d="M217 -23h-67v636h67v40h-169v-716h169v40z" />
    <glyph glyph-name="backslash" unicode="\" horiz-adv-x="42" 
 />
    <glyph glyph-name="bracketright" unicode="]" horiz-adv-x="233" 
d="M83 613v-636h-66v-40h169v716h-169v-40h66z" />
    <glyph glyph-name="asciicircum" unicode="^" horiz-adv-x="0" 
 />
    <glyph glyph-name="underscore" unicode="_" horiz-adv-x="467" 
d="M-2 -61h469v61h-469v-61z" />
    <glyph glyph-name="grave" unicode="`" horiz-adv-x="438" 
d="M18 678h-1q-10 -8 -10 -22q0 -12 7 -23t18 -15h-1l172 -70l-128 127q-13 12 -31 12q-15 0 -26 -9z" />
    <glyph glyph-name="a" unicode="a" 
d="M168 359q24 24 54 24q27 0 40 -19.5t13 -47.5v-55h-63q-35 0 -69 -10.5t-60.5 -30.5t-42 -48.5t-15.5 -63.5q0 -25 9 -48t24 -41t34 -28.5t38 -10.5q25 0 42 12l103 76v-68h183l-60 59v257q0 55 -50 87.5t-120 32.5q-45 0 -81.5 -7.5t-71.5 -31.5v-127zM233 213h42v-91
l-73 -54q-10 -5 -17 -5q-15 0 -28 13t-13 32q0 52 23.5 78.5t65.5 26.5z" />
    <glyph glyph-name="b" unicode="b" horiz-adv-x="498" 
d="M176 57q24 -33 56.5 -54t68.5 -21q39 0 71 20.5t54.5 54.5t34.5 74.5t12 80.5t-12 80.5t-34.5 74.5t-54.5 54t-71 20q-36 0 -68 -19.5t-52 -48.5v260l-181 -57l58 -58v-536zM265 48q-31 0 -53.5 18.5t-30.5 50.5v190q8 31 30.5 49.5t53.5 18.5q38 0 50.5 -38.5
t12.5 -124.5t-12.5 -125t-50.5 -39z" />
    <glyph glyph-name="c" unicode="c" horiz-adv-x="419" 
d="M239 383q25 0 38 -4.5t28 -19.5l89 -89v127q-38 25 -72.5 32t-88.5 7q-41 0 -78.5 -18t-67 -50t-46 -72.5t-16.5 -83.5t17 -83.5t46 -73t67 -50.5t78 -18q53 0 89 14t74 48l-34 34q-20 -23 -44 -32t-49 -9q-54 0 -77 40t-23 130q0 46 1.5 74.5t8.5 49.5q14 47 60 47z" />
    <glyph glyph-name="d" unicode="d" horiz-adv-x="499" 
d="M259 576l58 -58v-145q-20 29 -52 48.5t-68 19.5q-39 0 -71 -20t-54.5 -54t-34.5 -74.5t-12 -80.5t12 -81t34.5 -74.5t54.5 -54t71 -20.5q36 0 68 20t52 49v-51h182l-59 59v574zM317 117q-7 -32 -30 -50.5t-54 -18.5q-38 0 -51 39.5t-13 124.5t12.5 124t51.5 39
q31 0 53.5 -18.5t30.5 -49.5v-190z" />
    <glyph glyph-name="e" unicode="e" horiz-adv-x="465" 
d="M440 217q0 50 -16 91.5t-44.5 71t-66 45t-80.5 15.5q-44 0 -82.5 -18t-66.5 -50.5t-43.5 -74t-15.5 -85.5t16 -84.5t45 -72.5t67 -50t80 -18q76 0 120 22.5t76 60.5l-32 33l-1 -1q-18 -25 -44.5 -42t-77.5 -17q-70 0 -87.5 37.5t-17.5 136.5h271zM169 269q0 50 15.5 84.5
t48.5 34.5q28 0 51 -28.5t23 -56.5q0 -19 -10 -34h-128z" />
    <glyph glyph-name="f" unicode="f" horiz-adv-x="313" 
d="M307 419h-100v95q0 22 12.5 38t32.5 23l68 -68l85 116h-158q-35 0 -65 -14.5t-52.5 -39.5t-34.5 -57t-12 -67v-27l-67 -68h67v-291l-59 -59h242l-59 59v308h100v52z" />
    <glyph glyph-name="g" unicode="g" horiz-adv-x="425" 
d="M178 165q5 0 13 -1q11 -1 17 -1q30 0 63 8.5t61 25t45 40.5t17 54q0 17 -4 29t-12 28l62 71h-232q-33 0 -66.5 -7.5t-60.5 -23.5t-43.5 -40.5t-16.5 -56.5q0 -36 21.5 -63.5t53.5 -44.5v-183h112q43 0 74 -14t31 -45q0 -30 -31 -42.5t-74 -12.5h-61l-64 64l-86 -117h211
q38 0 74 8t66.5 24.5t48.5 43t18 61.5q0 36 -18 62.5t-48 44t-66.5 26t-74.5 8.5h-30v54zM208 375q29 0 46 -25.5t17 -58.5t-17 -58.5t-46 -25.5t-46.5 25.5t-17.5 58.5t17.5 58.5t46.5 25.5z" />
    <glyph glyph-name="h" unicode="h" horiz-adv-x="504" 
d="M250 0l-59 59v226l41 41q31 32 56 32q17 0 25.5 -12.5t8.5 -25.5v-320h182l-59 59v278q0 37 -32.5 68.5t-79.5 31.5q-21 0 -49 -11.5t-57 -40.5l-36 -36v284l-181 -57l58 -58v-459l-60 -59h242z" />
    <glyph glyph-name="i" unicode="i" horiz-adv-x="271" 
d="M265 0l-59 59v372l-181 -62l58 -57v-253l-60 -59h242zM206 524q0 26 -18 44t-44 18q-25 0 -43 -18t-18 -44q0 -25 18 -43t43 -18q26 0 44 18t18 43z" />
    <glyph glyph-name="j" unicode="j" horiz-adv-x="275" 
d="M213 524q0 26 -18 44t-43 18q-26 0 -44 -18t-18 -44q0 -25 18.5 -43t43.5 -18t43 18t18 43zM41 369l57 -57v-370q0 -21 -12 -37t-33 -23l-68 68l-85 -117h158q35 0 65 14.5t52.5 39.5t34.5 57.5t12 67.5v419z" />
    <glyph glyph-name="k" unicode="k" horiz-adv-x="521" 
d="M191 59v140l152 -151v-48h195l-233 233l191 190h-196l49 -49l-158 -158v417l-181 -61l58 -58v-455l-60 -59h242z" />
    <glyph glyph-name="l" unicode="l" horiz-adv-x="271" 
d="M263 0l-60 59v574l-180 -61l57 -58v-455l-59 -59h242z" />
    <glyph glyph-name="m" unicode="m" horiz-adv-x="717" 
d="M227 381l-36 -36v86l-181 -62l58 -57v-253l-60 -59h242l-59 59v222l41 41q26 26 41 26q13 0 20.5 -8t7.5 -16v-324h182l-59 59v222l41 41q26 26 42 26q12 0 19.5 -8.5t7.5 -15.5v-324h183l-59 59v261q0 20 -5.5 40t-16.5 38t-30 29t-44 11q-45 0 -102 -57l-37 -37
q-3 35 -30.5 64.5t-64.5 29.5q-44 0 -101 -57z" />
    <glyph glyph-name="n" unicode="n" horiz-adv-x="521" 
d="M227 385l-36 -36v82l-181 -62l58 -57v-253l-60 -59h242l-59 59v226l41 41q36 37 64 37q21 0 31.5 -13.5t10.5 -29.5v-320h183l-59 59v274q0 37 -33 72.5t-87 35.5q-25 0 -54.5 -13t-60.5 -43z" />
    <glyph glyph-name="o" unicode="o" horiz-adv-x="507" 
d="M25 212q0 -46 17.5 -88t49.5 -74t73.5 -49.5t87.5 -17.5q47 0 88.5 17.5t73.5 49.5t49.5 74t17.5 88t-17.5 88t-49.5 73.5t-73.5 49t-88.5 17.5q-46 0 -87.5 -17.5t-73.5 -49t-49.5 -73.5t-17.5 -88zM253 32q-27 0 -44 16t-25.5 42.5t-11.5 56.5t-3 65t3 65t11.5 56.5
t25.5 42.5t44 16t44 -16t26 -42.5t12 -56.5t3 -65t-3 -65t-12 -56.5t-26 -42.5t-44 -16z" />
    <glyph glyph-name="p" unicode="p" horiz-adv-x="498" 
d="M181 52q20 -29 52 -49t68 -20q39 0 71 20.5t54.5 54.5t34.5 74.5t12 80.5t-12 80.5t-34.5 74.5t-54.5 54t-71 20q-36 0 -68 -20t-52 -49v58l-181 -62l58 -57v-420l-60 -59h242l-59 59v160zM181 308q8 31 30.5 49.5t53.5 18.5q38 0 50.5 -38.5t12.5 -124.5t-12.5 -125
t-50.5 -39q-31 0 -53.5 18.5t-30.5 50.5v190z" />
    <glyph glyph-name="q" unicode="q" horiz-adv-x="492" 
d="M440 -108v549l-118 -74q-23 33 -55.5 53.5t-69.5 20.5q-39 0 -71 -20t-54.5 -54t-34.5 -74.5t-12 -80.5t12 -81t34.5 -74.5t54.5 -54t71 -20.5q36 0 68 20t52 49v-159l-59 -59h241zM233 375q31 0 53.5 -18.5t30.5 -49.5v-190q-7 -32 -30 -50.5t-54 -18.5q-38 0 -51 39.5
t-13 124.5t12.5 124t51.5 39z" />
    <glyph glyph-name="r" unicode="r" horiz-adv-x="383" 
d="M227 389l-36 -39v81l-181 -62l58 -57v-253l-60 -59h242l-59 59v214l80 88l103 -103v169q-10 2 -23 4t-18 2q-32 0 -61 -13t-45 -31z" />
    <glyph glyph-name="s" unicode="s" horiz-adv-x="354" 
d="M287 232l-142 79q-14 8 -18 16t-4 14q0 25 21 41t44 16q22 0 32 -13l57 -74l63 90l-117 35q-26 7 -50 7q-60 0 -104 -38t-44 -108q0 -29 12.5 -55.5t41.5 -41.5l154 -79q6 -4 10.5 -10t4.5 -18q0 -29 -22.5 -49.5t-47.5 -20.5q-15 0 -25.5 5.5t-14.5 9.5l-61 79l-68 -90
l125 -40q6 -2 21.5 -4.5t33.5 -2.5q67 0 110 40.5t43 106.5q0 39 -16 65.5t-39 39.5z" />
    <glyph glyph-name="t" unicode="t" horiz-adv-x="317" 
d="M288 83q-33 -43 -85 -43v327h117v52h-117v118l-199 -199h76v-247q0 -48 33.5 -78.5t87.5 -30.5q29 0 57 13q18 8 33 22.5t26 36.5z" />
    <glyph glyph-name="u" unicode="u" horiz-adv-x="494" 
d="M0 369l58 -57v-225q0 -35 30.5 -67.5t79.5 -32.5q25 0 51.5 11t56.5 40l36 36v-74h182l-59 59v372l-181 -62l58 -57v-174l-41 -40q-31 -32 -55 -32q-18 0 -26.5 12t-8.5 25v328z" />
    <glyph glyph-name="v" unicode="v" horiz-adv-x="463" 
d="M-8 415l59 -59l147 -356h75l147 356l59 59h-183l58 -58l-83 -223l-83 223l58 58h-254z" />
    <glyph glyph-name="w" unicode="w" horiz-adv-x="700" 
d="M263 415l58 -58l-67 -217l-66 217l58 58h-254l60 -60l129 -355h76l97 268l98 -268h76l129 356l60 59h-184l59 -58l-67 -217l-67 217l59 58h-254z" />
    <glyph glyph-name="x" unicode="x" 
d="M60 355l117 -163l-121 -132l-60 -60h192l-58 58l79 87l62 -87l-58 -58h254l-60 60l-120 168l116 127l60 60h-192l57 -57l-75 -83l-57 82l58 58h-254z" />
    <glyph glyph-name="y" unicode="y" 
d="M51 356l152 -355l-44 -109l-81 -59h205l-58 59l191 464l59 59h-183l58 -58l-82 -202l-89 202l59 58h-246z" />
    <glyph glyph-name="z" unicode="z" horiz-adv-x="382" 
d="M25 283l80 80h109l-196 -363h339v133l-80 -80h-109l195 362h-338v-132z" />
    <glyph glyph-name="braceleft" unicode="{" horiz-adv-x="325" 
d="M130 295l113 88q0 11 -1 27.5t-1 20.5q0 44 3.5 76t10.5 56.5t20 45.5t33 44l-10 23q-95 -80 -132.5 -132t-37.5 -116q0 -3 2 -23q2 -16 2 -19l-114 -91l114 -91q0 -3 -2 -19q-2 -20 -2 -23q0 -64 37.5 -116t132.5 -132l10 23q-20 23 -33 44t-20 45.5t-10.5 56.5t-3.5 76
q0 4 1 21t1 28z" />
    <glyph glyph-name="bar" unicode="|" horiz-adv-x="0" 
 />
    <glyph glyph-name="braceright" unicode="}" horiz-adv-x="325" 
d="M83 383l112 -88l-112 -87q1 -43 1 -49q0 -44 -3 -76t-10.5 -56.5t-20.5 -45.5t-33 -44l11 -23q95 80 132 132t37 116q0 3 -2 23q-2 16 -2 19l115 91l-115 91q0 3 2 19q2 20 2 23q0 64 -37 116t-132 132l-11 -23q20 -23 33 -44t20.5 -45.5t10.5 -56.5t3 -76q0 -6 -1 -48z
" />
    <glyph glyph-name="asciitilde" unicode="~" horiz-adv-x="0" 
 />
    <glyph glyph-name="nbspace" unicode="&#xa0;" horiz-adv-x="250" 
 />
    <glyph glyph-name="exclamdown" unicode="&#xa1;" horiz-adv-x="271" 
d="M101 303l-29 -470h140l-29 470h-82zM79 403q0 -26 18.5 -44.5t44.5 -18.5t44 18.5t18 44.5t-18 44t-44 18q-25 0 -44 -18t-19 -44z" />
    <glyph glyph-name="cent" unicode="&#xa2;" horiz-adv-x="433" 
d="M226 48v-90h57v90h-57zM226 673v-90h57v90h-57zM248 490q25 0 38 -4.5t28 -19.5l89 -89v126q-38 26 -72 33t-89 7q-41 0 -78.5 -18t-67 -50t-46 -72.5t-16.5 -84.5q0 -43 17 -83.5t46.5 -72.5t67 -50t77.5 -18q53 0 89 13.5t74 48.5l-34 34q-21 -24 -44.5 -33t-48.5 -9
q-54 0 -77 40t-23 130q0 93 12 132.5t58 39.5z" />
    <glyph glyph-name="sterling" unicode="&#xa3;" horiz-adv-x="446" 
d="M295 336h-100v145q0 22 12.5 38t32.5 23l68 -69l85 117h-158q-35 0 -65 -14.5t-52 -39.5t-34 -57t-12 -67v-78l-68 -67h68v-220l-47 -47h412v141l-80 -80h-162v222h100v53z" />
    <glyph glyph-name="currency" unicode="&#xa4;" horiz-adv-x="408" 
d="M41 528l25 -29l52 31q15 8 35 8q48 0 76.5 -38.5t28.5 -77.5q0 -21 -8 -40t-19 -35l-208 -288l-1 -1v-58h361v133l-47 -47h-220l216 257q19 23 32.5 48.5t13.5 61.5q0 34 -16 63t-42 49t-57 31t-60 11q-50 0 -88 -26z" />
    <glyph glyph-name="yen" unicode="&#xa5;" horiz-adv-x="546" 
d="M38 313h149l25 -44h-174v-61h175v-145l-63 -63h250l-63 63v145h175v61h-173l24 44h149v60h-114l85 153l63 64h-196l63 -62l-105 -192l-104 192l63 62h-267l64 -64l88 -153h-114v-60z" />
    <glyph glyph-name="brokenbar" unicode="&#xa6;" horiz-adv-x="270" 
d="M106 292v-292h62v292h-62zM106 667v-292h62v292h-62z" />
    <glyph glyph-name="section" unicode="&#xa7;" horiz-adv-x="488" 
d="M271 369q-37 0 -64 -16.5t-44 -43.5q13 80 36.5 131.5t51 78t50.5 36t49 15.5q11 2 13 3l-10 30q-13 1 -25 1q-65 0 -121 -33t-95.5 -89t-61 -123.5t-21.5 -135.5q0 -104 60 -170t161 -66q33 0 70 14t68.5 40t50.5 62t19 77q0 43 -16 78t-43.5 60t-60.5 38t-67 13z
M327 167q0 -55 -20.5 -93t-56.5 -38q-97 0 -97 175q0 17 1 26t2 11q7 26 36 45t56 19q28 0 44.5 -14.5t24 -37t9 -44t1.5 -49.5z" />
    <glyph glyph-name="dieresis" unicode="&#xa8;" horiz-adv-x="302" 
d="M280 626q0 23 -16.5 39.5t-39.5 16.5t-39.5 -16.5t-16.5 -39.5t16.5 -39.5t39.5 -16.5t39.5 16.5t16.5 39.5zM125 627q0 23 -16.5 39.5t-39.5 16.5t-39.5 -16.5t-16.5 -39.5t16.5 -39.5t39.5 -16.5t39.5 16.5t16.5 39.5z" />
    <glyph glyph-name="copyright" unicode="&#xa9;" horiz-adv-x="640" 
d="M615 295q0 60 -23 114t-63.5 94.5t-94.5 63.5t-114 23t-113.5 -22.5t-94.5 -63.5t-64 -95t-23 -114t23 -113.5t64 -94.5t94.5 -64t113.5 -23t114 23t94.5 64t63.5 94.5t23 113.5zM320 53q-49 0 -93.5 18.5t-78 52t-52 78t-18.5 93.5t18.5 93.5t52 78t78 52.5t93.5 19
t93.5 -18.5t78 -52.5t52.5 -78.5t19 -93.5t-19 -93.5t-52.5 -78t-78 -52t-93.5 -18.5zM319 468q-32 0 -60 -14t-48 -38t-31 -55t-11 -64t11.5 -64t32 -55t48 -37.5t58.5 -13.5t50.5 3.5t42.5 15.5v86l-54 -54q-15 -15 -39 -15q-20 0 -33.5 12t-21 31.5t-10 42t-2.5 48.5
q0 28 2.5 50.5t9 42t20.5 31.5t35 12q27 0 39 -15l54 -54v84q-24 13 -43 16.5t-50 3.5z" />
    <glyph glyph-name="ordfeminine" unicode="&#xaa;" horiz-adv-x="0" 
 />
    <glyph glyph-name="guillemotleft" unicode="&#xab;" horiz-adv-x="350" 
d="M178 67v17l-61 128l61 127v18l-158 -145zM328 67v17l-61 128l61 127v18l-158 -145z" />
    <glyph glyph-name="logicalnot" unicode="&#xac;" horiz-adv-x="0" 
 />
    <glyph glyph-name="minus" unicode="&#xad;" horiz-adv-x="333" 
d="M46 200h240v69h-240v-69z" />
    <glyph glyph-name="minus" unicode="&#x2212;" horiz-adv-x="333" 
d="M46 200h240v69h-240v-69z" />
    <glyph glyph-name="registered" unicode="&#xae;" horiz-adv-x="640" 
d="M615 295q0 60 -23 114t-63.5 94.5t-94.5 63.5t-114 23t-113.5 -22.5t-94.5 -63.5t-64 -95t-23 -114t23 -113.5t64 -94.5t94.5 -64t113.5 -23t114 23t94.5 64t63.5 94.5t23 113.5zM320 53q-49 0 -93.5 18.5t-78 52t-52 78t-18.5 93.5t18.5 93.5t52 78t78 52.5t93.5 19
t93.5 -18.5t78 -52.5t52.5 -78.5t19 -93.5t-19 -93.5t-52.5 -78t-78 -52t-93.5 -18.5zM289 170v110h21l73 -147h100l-38 37l-67 123q23 9 41.5 30t18.5 50q0 43 -38 65.5t-88 22.5h-130l36 -38v-253l-36 -37h145zM289 424h23q20 0 34.5 -15.5t14.5 -35.5q0 -23 -14 -39.5
t-35 -16.5h-23v107z" />
    <glyph glyph-name="macron" unicode="&#xaf;" horiz-adv-x="250" 
d="M59 621h174v48h-174v-48z" />
    <glyph glyph-name="degree" unicode="&#xb0;" horiz-adv-x="496" 
d="M361 317q38 19 61 54t23 77q0 33 -16 61.5t-44.5 49.5t-64 32.5t-72.5 11.5t-72.5 -11.5t-63 -32.5t-44 -49.5t-16.5 -61.5q0 -41 22.5 -76.5t60.5 -56.5q-50 -21 -76 -61.5t-26 -95.5q0 -39 18 -71t49 -54.5t69.5 -34t78.5 -11.5t79 11.5t70 34t49 54.5t18 71
q0 55 -26.5 96t-76.5 63zM160 158q0 51 23 90.5t65 39.5t65.5 -39.5t23.5 -90.5q0 -48 -24 -85t-65 -37q-40 0 -64 36.5t-24 85.5zM316 437q0 -38 -18 -69.5t-50 -31.5q-31 0 -49 31.5t-18 69.5q0 50 16 83.5t51 33.5q36 0 52 -33.5t16 -83.5z" />
    <glyph glyph-name="plusminus" unicode="&#xb1;" horiz-adv-x="0" 
 />
    <glyph glyph-name="twosuperior" unicode="&#xb2;" horiz-adv-x="353" 
d="M94 560l19 -19l30 16q8 3 14 3q22 0 35 -17.5t13 -36.5q0 -17 -12 -35l-105 -143v-37h188v82l-30 -30h-98l102 122q9 9 16.5 23.5t7.5 34.5q0 35 -29.5 57.5t-62.5 22.5q-29 0 -46 -13z" />
    <glyph glyph-name="threesuperior" unicode="&#xb3;" horiz-adv-x="358" 
d="M128 446q27 0 47.5 -18t20.5 -43q0 -27 -22.5 -45t-52.5 -18h-25v-29h25q27 0 52.5 5t48 16t35.5 28.5t13 42.5q0 27 -16 45.5t-41 27.5q22 11 35 31.5t13 42.5q0 32 -26 52t-65 20q-35 0 -62 -16l-17 -10l20 -22q4 3 12 6.5t18 3.5q22 0 35 -14t13 -29q0 -18 -17 -36
t-44 -18v-23z" />
    <glyph glyph-name="acute" unicode="&#xb4;" horiz-adv-x="438" 
d="M230 654q0 12 -8.5 22.5t-29.5 10.5q-18 0 -30 -12l-128 -127l172 70q24 10 24 36z" />
    <glyph glyph-name="mu" unicode="&#xb5;" horiz-adv-x="494" 
d="M0 369l58 -57v-479h182l-59 59v95q41 0 95 51l36 36v-74h182l-59 59v372l-181 -62l58 -57v-174l-41 -40q-31 -32 -55 -32q-18 0 -26.5 12t-8.5 25v328z" />
    <glyph glyph-name="paragraph" unicode="&#xb6;" horiz-adv-x="475" 
d="M326 -167h116l-51 51v655l51 51h-238q-34 0 -65 -13.5t-54.5 -37t-37 -54.5t-13.5 -65t13 -65t36 -54.5t54 -37t65 -13.5q-1 -341 -1 -366l-51 -51h116v705h60v-705z" />
    <glyph glyph-name="periodcentered" unicode="&#xb7;" horiz-adv-x="488" 
d="M217 221q37 0 63.5 16.5t44.5 43.5q-12 -80 -36 -132t-52 -78t-51 -35.5t-49 -14.5l-12 -3l10 -31q13 -1 25 -1q65 0 121 33t95.5 89t60.5 124t21 135q0 104 -59.5 170t-160.5 66q-34 0 -70.5 -14t-68.5 -40t-51 -62t-19 -77q0 -43 16 -78t43.5 -60t61 -38t67.5 -13z
M161 423q0 55 20.5 93t56.5 38q97 0 97 -175q0 -17 -1 -26t-2 -11q-7 -26 -36 -45t-57 -19q-27 0 -43.5 14.5t-24 36.5t-9 44t-1.5 50z" />
    <glyph glyph-name="periodcentered" unicode="&#x2219;" horiz-adv-x="488" 
d="M217 221q37 0 63.5 16.5t44.5 43.5q-12 -80 -36 -132t-52 -78t-51 -35.5t-49 -14.5l-12 -3l10 -31q13 -1 25 -1q65 0 121 33t95.5 89t60.5 124t21 135q0 104 -59.5 170t-160.5 66q-34 0 -70.5 -14t-68.5 -40t-51 -62t-19 -77q0 -43 16 -78t43.5 -60t61 -38t67.5 -13z
M161 423q0 55 20.5 93t56.5 38q97 0 97 -175q0 -17 -1 -26t-2 -11q-7 -26 -36 -45t-57 -19q-27 0 -43.5 14.5t-24 36.5t-9 44t-1.5 50z" />
    <glyph glyph-name="cedilla" unicode="&#xb8;" horiz-adv-x="210" 
d="M136 19l-90 -90h38q16 0 28 -9.5t12 -24.5q0 -17 -11.5 -25.5t-29.5 -8.5h-15v-24h15q50 0 91.5 20t41.5 55q0 23 -18.5 39t-44.5 18l51 50h-68z" />
    <glyph glyph-name="onesuperior" unicode="&#xb9;" horiz-adv-x="267" 
d="M197 293l-30 30v280l-97 -26l27 -27v-227l-30 -30h130z" />
    <glyph glyph-name="ordmasculine" unicode="&#xba;" horiz-adv-x="0" 
 />
    <glyph glyph-name="guillemotright" unicode="&#xbb;" horiz-adv-x="350" 
d="M172 67l158 145l-158 145v-18l61 -127l-61 -128v-17zM22 67l158 145l-158 145v-18l61 -127l-61 -128v-17z" />
    <glyph glyph-name="onequarter" unicode="&#xbc;" horiz-adv-x="623" 
d="M197 293l-30 30v280l-97 -26l27 -27v-227l-30 -30h130zM136 0h87l260 632h-86zM443 -2h70v84h31v39h-31v183h-36l-144 -200v-22h110v-84zM443 190v-69h-50z" />
    <glyph glyph-name="onehalf" unicode="&#xbd;" horiz-adv-x="600" 
d="M197 293l-30 30v280l-97 -26l27 -27v-227l-30 -30h130zM372 262l18 -19l30 15q7 4 14 4q22 0 35.5 -17.5t13.5 -36.5q0 -18 -13 -35l-105 -144v-37h188v83l-30 -30h-98l103 122v0q10 11 17 24.5t7 32.5q0 35 -30 57.5t-63 22.5q-29 0 -46 -12zM136 0h87l260 632h-86z" />
    <glyph glyph-name="threequarters" unicode="&#xbe;" horiz-adv-x="623" 
d="M84 446q28 0 48.5 -18t20.5 -43q0 -27 -22.5 -45t-52.5 -18h-25v-29h25q26 0 52 5t48 16t35.5 28.5t13.5 42.5q0 27 -16 45.5t-42 27.5q23 11 36 31t13 43q0 32 -26 52t-65 20q-34 0 -63 -16l-16 -10l20 -22q4 3 12 6.5t18 3.5q22 0 35 -14t13 -29q0 -18 -17 -36t-45 -18
v-23zM136 0h87l260 632h-86zM443 -2h70v84h31v39h-31v183h-36l-144 -200v-22h110v-84zM443 190v-69h-50z" />
    <glyph glyph-name="questiondown" unicode="&#xbf;" horiz-adv-x="450" 
d="M371 -37l-69 -73q-12 -6 -21 -8.5t-23 -2.5q-36 0 -71 27.5t-35 75.5q0 19 8.5 40.5t21.5 36.5l96 114v121h-48v-39l-182 -191q-10 -9 -19 -27t-9 -47q0 -25 10 -53.5t32 -55.5t59.5 -44t89.5 -17q27 0 46.5 2t47.5 7l129 22zM188 403q0 -26 18 -44.5t44 -18.5t44.5 18.5
t18.5 44.5t-18.5 44t-44.5 18t-44 -18t-18 -44z" />
    <glyph glyph-name="Agrave" unicode="&#xc0;" horiz-adv-x="533" 
d="M144 761h-1q-10 -8 -10 -22q0 -12 7 -23t18 -15h-1l172 -70l-128 127q-13 12 -31 12q-15 0 -26 -9zM175 0l-62 63l35 100h177l33 -100l-62 -63h254l-64 64l-183 526h-76l-188 -526l-64 -64h200zM169 223l69 195l65 -195h-134z" />
    <glyph glyph-name="Aacute" unicode="&#xc1;" horiz-adv-x="533" 
d="M387 737q0 12 -8.5 22.5t-29.5 10.5q-18 0 -30 -12l-128 -127l172 70q24 10 24 36zM175 0l-62 63l35 100h177l33 -100l-62 -63h254l-64 64l-183 526h-76l-188 -526l-64 -64h200zM169 223l69 195l65 -195h-134z" />
    <glyph glyph-name="Acircumflex" unicode="&#xc2;" horiz-adv-x="533" 
d="M441 630l-161 161l-162 -161h18l144 61l143 -61h18zM175 0l-62 63l35 100h177l33 -100l-62 -63h254l-64 64l-183 526h-76l-188 -526l-64 -64h200zM169 223l69 195l65 -195h-134z" />
    <glyph glyph-name="Atilde" unicode="&#xc3;" horiz-adv-x="533" 
d="M176 638q9 15 16.5 22t19.5 7t28 -12q11 -8 20.5 -12.5t24.5 -4.5q32 0 65 27t39 67h-20q-16 -29 -35 -29q-11 0 -25 11q-10 9 -20.5 13.5t-28.5 4.5q-32 0 -65 -27t-39 -67h20zM175 0l-62 63l35 100h177l33 -100l-62 -63h254l-64 64l-183 526h-76l-188 -526l-64 -64h200
zM169 223l69 195l65 -195h-134z" />
    <glyph glyph-name="Adieresis" unicode="&#xc4;" horiz-adv-x="533" 
d="M401 689q0 23 -16.5 39.5t-39.5 16.5t-39.5 -16.5t-16.5 -39.5t16.5 -39.5t39.5 -16.5t39.5 16.5t16.5 39.5zM246 690q0 23 -16.5 39.5t-39.5 16.5t-39.5 -16.5t-16.5 -39.5t16.5 -39.5t39.5 -16.5t39.5 16.5t16.5 39.5zM175 0l-62 63l35 100h177l33 -100l-62 -63h254
l-64 64l-183 526h-76l-188 -526l-64 -64h200zM169 223l69 195l65 -195h-134z" />
    <glyph glyph-name="Aring" unicode="&#xc5;" horiz-adv-x="533" 
d="M239 638q0 11 8 18t18 7q11 0 18.5 -7t7.5 -18t-7.5 -18.5t-18.5 -7.5q-10 0 -18 7.5t-8 18.5zM169 223l69 195l65 -195h-134zM311 565q18 12 29 31t11 42q0 35 -25 60t-61 25q-35 0 -60.5 -25t-25.5 -60q0 -22 10.5 -41.5t28.5 -30.5l-179 -502l-64 -64h200l-62 63
l35 100h177l33 -100l-62 -63h254l-64 64z" />
    <glyph glyph-name="AE" unicode="&#xc6;" horiz-adv-x="675" 
d="M304 0h345v141l-80 -80h-73l-78 222h105l64 -63v188l-64 -64h-125l-66 185h237l80 -80v141h-414l-187 -526l-65 -64h200l-62 63l35 100h177l34 -100zM178 223l68 195l66 -195h-134z" />
    <glyph glyph-name="Ccedilla" unicode="&#xc7;" horiz-adv-x="486" 
d="M218 1l-72 -72h38q16 0 28 -9.5t12 -24.5q0 -17 -11.5 -25.5t-29.5 -8.5h-15v-24h15q50 0 91.5 20t41.5 55q0 23 -18.5 39t-44.5 18l20 19q7 -1 22 -1q54 0 89.5 6.5t76.5 28.5v148l-93 -93q-29 -29 -73 -29q-38 0 -63.5 22t-39 58t-18.5 78t-5 89q0 50 4.5 92t17.5 78
t38.5 58.5t65.5 22.5q44 0 73 -28l93 -94v144q-42 22 -75.5 28.5t-90.5 6.5q-56 0 -105.5 -25t-86.5 -69t-57.5 -99.5t-20.5 -114.5q0 -48 14 -94.5t40 -86.5t61.5 -69t77.5 -44z" />
    <glyph glyph-name="Egrave" unicode="&#xc8;" 
d="M136 761h-1q-10 -8 -10 -22q0 -12 7 -23t18 -15h-1l172 -70l-128 127q-13 12 -31 12q-15 0 -26 -9zM433 0v141l-80 -80h-150v222h104l63 -63v188l-63 -64h-104v185h150l80 -80v141h-416l63 -63v-464l-63 -63h416z" />
    <glyph glyph-name="Eacute" unicode="&#xc9;" 
d="M387 737q0 12 -8.5 22.5t-29.5 10.5q-18 0 -30 -12l-128 -127l172 70q24 10 24 36zM433 0v141l-80 -80h-150v222h104l63 -63v188l-63 -64h-104v185h150l80 -80v141h-416l63 -63v-464l-63 -63h416z" />
    <glyph glyph-name="Ecircumflex" unicode="&#xca;" 
d="M416 630l-161 161l-162 -161h18l144 61l143 -61h18zM433 0v141l-80 -80h-150v222h104l63 -63v188l-63 -64h-104v185h150l80 -80v141h-416l63 -63v-464l-63 -63h416z" />
    <glyph glyph-name="Edieresis" unicode="&#xcb;" 
d="M400 689q0 23 -16.5 39.5t-39.5 16.5t-39.5 -16.5t-16.5 -39.5t16.5 -39.5t39.5 -16.5t39.5 16.5t16.5 39.5zM245 690q0 23 -16.5 39.5t-39.5 16.5t-39.5 -16.5t-16.5 -39.5t16.5 -39.5t39.5 -16.5t39.5 16.5t16.5 39.5zM433 0v141l-80 -80h-150v222h104l63 -63v188
l-63 -64h-104v185h150l80 -80v141h-416l63 -63v-464l-63 -63h416z" />
    <glyph glyph-name="Igrave" unicode="&#xcc;" horiz-adv-x="300" 
d="M40 761h-1q-10 -8 -10 -22q0 -12 7 -23t18 -15h-1l172 -70l-128 127q-13 12 -31 12q-15 0 -26 -9zM25 590l63 -63v-464l-63 -63h250l-63 63v464l63 63h-250z" />
    <glyph glyph-name="Iacute" unicode="&#xcd;" horiz-adv-x="300" 
d="M283 737q0 12 -8.5 22.5t-29.5 10.5q-18 0 -30 -12l-128 -127l172 70q24 10 24 36zM25 590l63 -63v-464l-63 -63h250l-63 63v464l63 63h-250z" />
    <glyph glyph-name="Icircumflex" unicode="&#xce;" horiz-adv-x="300" 
d="M320 630l-161 161l-162 -161h18l144 61l143 -61h18zM25 590l63 -63v-464l-63 -63h250l-63 63v464l63 63h-250z" />
    <glyph glyph-name="Idieresis" unicode="&#xcf;" horiz-adv-x="300" 
d="M296 689q0 23 -16.5 39.5t-39.5 16.5t-39.5 -16.5t-16.5 -39.5t16.5 -39.5t39.5 -16.5t39.5 16.5t16.5 39.5zM141 690q0 23 -16.5 39.5t-39.5 16.5t-39.5 -16.5t-16.5 -39.5t16.5 -39.5t39.5 -16.5t39.5 16.5t16.5 39.5zM25 590l63 -63v-464l-63 -63h250l-63 63v464
l63 63h-250z" />
    <glyph glyph-name="Eth" unicode="&#xd0;" horiz-adv-x="599" 
d="M220 341v188h63q38 0 66.5 -20t46 -54.5t26 -75.5t8.5 -84t-8.5 -84.5t-26 -75t-46 -54t-66.5 -20.5h-63v197h62v83h-62zM97 258v-195l-64 -63h271q57 0 107 23.5t86.5 65t56.5 95t20 111.5t-20 111.5t-56.5 95t-86.5 65t-107 23.5h-271l64 -63v-186h-69v-83h69z" />
    <glyph glyph-name="Ntilde" unicode="&#xd1;" horiz-adv-x="563" 
d="M213 638q9 15 16.5 22t19.5 7t28 -12q11 -8 20.5 -12.5t24.5 -4.5q32 0 65 27t39 67h-20q-16 -29 -35 -29q-11 0 -25 11q-10 9 -20.5 13.5t-28.5 4.5q-32 0 -65 -27t-39 -67h20zM149 63v368l346 -500v596l63 63h-195l63 -63v-289l-245 352h-164l63 -63v-464l-63 -63h196z
" />
    <glyph glyph-name="Ograve" unicode="&#xd2;" horiz-adv-x="590" 
d="M177 761h-1q-10 -8 -10 -22q0 -12 7 -23t18 -15h-1l172 -70l-128 127q-13 12 -31 12q-15 0 -26 -9zM25 295q0 -60 19.5 -116.5t55.5 -100.5t86 -69.5t109 -25.5t109 25.5t86 69.5t55.5 100.5t19.5 116.5t-19 116.5t-55.5 100.5t-86.5 69.5t-109 25.5t-109 -25.5
t-86 -69.5t-55.5 -100.5t-19.5 -116.5zM295 44q-38 0 -63 22.5t-38.5 59t-19 79.5t-5.5 90q0 48 5.5 91t18.5 79t38.5 58.5t63.5 22.5t63.5 -22.5t39 -59t18.5 -79t5 -90.5q0 -47 -5 -90.5t-18.5 -79.5t-39 -58.5t-63.5 -22.5z" />
    <glyph glyph-name="Oacute" unicode="&#xd3;" horiz-adv-x="590" 
d="M425 737q0 12 -8.5 22.5t-29.5 10.5q-18 0 -30 -12l-128 -127l172 70q24 10 24 36zM25 295q0 -60 19.5 -116.5t55.5 -100.5t86 -69.5t109 -25.5t109 25.5t86 69.5t55.5 100.5t19.5 116.5t-19 116.5t-55.5 100.5t-86.5 69.5t-109 25.5t-109 -25.5t-86 -69.5t-55.5 -100.5
t-19.5 -116.5zM295 44q-38 0 -63 22.5t-38.5 59t-19 79.5t-5.5 90q0 48 5.5 91t18.5 79t38.5 58.5t63.5 22.5t63.5 -22.5t39 -59t18.5 -79t5 -90.5q0 -47 -5 -90.5t-18.5 -79.5t-39 -58.5t-63.5 -22.5z" />
    <glyph glyph-name="Ocircumflex" unicode="&#xd4;" horiz-adv-x="590" 
d="M470 626l-161 161l-162 -161h18l144 61l143 -61h18zM25 295q0 -60 19.5 -116.5t55.5 -100.5t86 -69.5t109 -25.5t109 25.5t86 69.5t55.5 100.5t19.5 116.5t-19 116.5t-55.5 100.5t-86.5 69.5t-109 25.5t-109 -25.5t-86 -69.5t-55.5 -100.5t-19.5 -116.5zM295 44
q-38 0 -63 22.5t-38.5 59t-19 79.5t-5.5 90q0 48 5.5 91t18.5 79t38.5 58.5t63.5 22.5t63.5 -22.5t39 -59t18.5 -79t5 -90.5q0 -47 -5 -90.5t-18.5 -79.5t-39 -58.5t-63.5 -22.5z" />
    <glyph glyph-name="Otilde" unicode="&#xd5;" horiz-adv-x="590" 
d="M213 638q9 15 16.5 22t19.5 7t28 -12q11 -8 20.5 -12.5t24.5 -4.5q32 0 65 27t39 67h-20q-16 -29 -35 -29q-11 0 -25 11q-10 9 -20.5 13.5t-28.5 4.5q-32 0 -65 -27t-39 -67h20zM25 295q0 -60 19.5 -116.5t55.5 -100.5t86 -69.5t109 -25.5t109 25.5t86 69.5t55.5 100.5
t19.5 116.5t-19 116.5t-55.5 100.5t-86.5 69.5t-109 25.5t-109 -25.5t-86 -69.5t-55.5 -100.5t-19.5 -116.5zM295 44q-38 0 -63 22.5t-38.5 59t-19 79.5t-5.5 90q0 48 5.5 91t18.5 79t38.5 58.5t63.5 22.5t63.5 -22.5t39 -59t18.5 -79t5 -90.5q0 -47 -5 -90.5t-18.5 -79.5
t-39 -58.5t-63.5 -22.5z" />
    <glyph glyph-name="Odieresis" unicode="&#xd6;" horiz-adv-x="590" 
d="M433 689q0 23 -16.5 39.5t-39.5 16.5t-39.5 -16.5t-16.5 -39.5t16.5 -39.5t39.5 -16.5t39.5 16.5t16.5 39.5zM278 690q0 23 -16.5 39.5t-39.5 16.5t-39.5 -16.5t-16.5 -39.5t16.5 -39.5t39.5 -16.5t39.5 16.5t16.5 39.5zM25 295q0 -60 19.5 -116.5t55.5 -100.5t86 -69.5
t109 -25.5t109 25.5t86 69.5t55.5 100.5t19.5 116.5t-19 116.5t-55.5 100.5t-86.5 69.5t-109 25.5t-109 -25.5t-86 -69.5t-55.5 -100.5t-19.5 -116.5zM295 44q-38 0 -63 22.5t-38.5 59t-19 79.5t-5.5 90q0 48 5.5 91t18.5 79t38.5 58.5t63.5 22.5t63.5 -22.5t39 -59
t18.5 -79t5 -90.5q0 -47 -5 -90.5t-18.5 -79.5t-39 -58.5t-63.5 -22.5z" />
    <glyph glyph-name="multiply" unicode="&#xd7;" horiz-adv-x="0" 
 />
    <glyph glyph-name="Oslash" unicode="&#xd8;" horiz-adv-x="590" 
d="M25 295q0 -71 27 -136t74 -108l-50 -93h57l35 61q57 -36 127 -36q59 0 109 25.5t86 69.5t55.5 100.5t19.5 116.5q0 71 -27.5 136.5t-75.5 109.5l50 91h-58l-33 -60q-60 35 -126 35q-59 0 -109 -25.5t-86 -69.5t-55.5 -100.5t-19.5 -116.5zM208 92q11 19 70 124t88 157
t38 69q9 -33 13 -70t4 -77q0 -47 -5 -90.5t-18.5 -79.5t-39 -58.5t-63.5 -22.5q-29 0 -49.5 12.5t-37.5 35.5zM381 501q-11 -19 -92.5 -163t-104.5 -185q-8 30 -11.5 67t-3.5 75q0 48 5.5 91t18.5 79t38.5 58.5t63.5 22.5q28 0 48.5 -11.5t37.5 -33.5z" />
    <glyph glyph-name="Ugrave" unicode="&#xd9;" horiz-adv-x="558" 
d="M177 761h-1q-10 -8 -10 -22q0 -12 7 -23t18 -15h-1l172 -70l-128 127q-13 12 -31 12q-15 0 -26 -9zM72 158q0 -40 17.5 -72.5t47.5 -55.5t67 -35t75 -12q41 0 78.5 12.5t66.5 36t46 56t17 70.5v369l63 63h-200l63 -63v-369q0 -45 -32 -77.5t-77 -32.5t-77 32.5t-32 77.5
v369l63 63h-250l64 -63v-369z" />
    <glyph glyph-name="Uacute" unicode="&#xda;" horiz-adv-x="558" 
d="M425 737q0 12 -8.5 22.5t-29.5 10.5q-18 0 -30 -12l-128 -127l172 70q24 10 24 36zM72 158q0 -40 17.5 -72.5t47.5 -55.5t67 -35t75 -12q41 0 78.5 12.5t66.5 36t46 56t17 70.5v369l63 63h-200l63 -63v-369q0 -45 -32 -77.5t-77 -32.5t-77 32.5t-32 77.5v369l63 63h-250
l64 -63v-369z" />
    <glyph glyph-name="Ucircumflex" unicode="&#xdb;" horiz-adv-x="558" 
d="M461 630l-161 161l-162 -161h18l144 61l143 -61h18zM72 158q0 -40 17.5 -72.5t47.5 -55.5t67 -35t75 -12q41 0 78.5 12.5t66.5 36t46 56t17 70.5v369l63 63h-200l63 -63v-369q0 -45 -32 -77.5t-77 -32.5t-77 32.5t-32 77.5v369l63 63h-250l64 -63v-369z" />
    <glyph glyph-name="Udieresis" unicode="&#xdc;" horiz-adv-x="558" 
d="M437 693q0 23 -16.5 39.5t-39.5 16.5t-39.5 -16.5t-16.5 -39.5t16.5 -39.5t39.5 -16.5t39.5 16.5t16.5 39.5zM282 694q0 23 -16.5 39.5t-39.5 16.5t-39.5 -16.5t-16.5 -39.5t16.5 -39.5t39.5 -16.5t39.5 16.5t16.5 39.5zM72 158q0 -40 17.5 -72.5t47.5 -55.5t67 -35
t75 -12q41 0 78.5 12.5t66.5 36t46 56t17 70.5v369l63 63h-200l63 -63v-369q0 -45 -32 -77.5t-77 -32.5t-77 32.5t-32 77.5v369l63 63h-250l64 -63v-369z" />
    <glyph glyph-name="Yacute" unicode="&#xdd;" horiz-adv-x="504" 
d="M409 725q0 12 -8.5 22.5t-29.5 10.5q-18 0 -30 -12l-128 -127l172 70q24 10 24 36zM48 526l149 -260v-203l-64 -63h250l-63 63v203l145 260l64 64h-196l63 -62l-104 -192l-104 192l62 62h-267z" />
    <glyph glyph-name="Thorn" unicode="&#xde;" horiz-adv-x="521" 
d="M17 0h250l-64 63v62h64q45 0 87.5 11t77.5 33t55.5 55t20.5 75t-20.5 75.5t-55.5 55t-78 32.5t-87 11h-64v54l64 63h-250l63 -63v-464zM267 186h-64v227h64q44 0 74.5 -34t30.5 -80q0 -45 -30.5 -79t-74.5 -34z" />
    <glyph glyph-name="germandbls" unicode="&#xdf;" horiz-adv-x="491" 
d="M313 436q0 -90 -87 -113v-30q23 0 44 -11t37.5 -30t26 -43t9.5 -49q0 -49 -33 -84t-84 -40v-35q9 -3 26 -7.5t28 -4.5q31 0 64 13.5t61 37t44.5 55t16.5 65.5q0 54 -39 97t-97 53q45 15 76 52t31 74q0 43 -15.5 74.5t-41.5 51.5t-58.5 29.5t-67.5 9.5q-46 0 -82 -18
t-60 -49t-36.5 -69t-12.5 -79v-339l-46 -47h170v428q0 23 2 42.5t8 36.5t18.5 27.5t32.5 10.5q28 0 46.5 -31t18.5 -78z" />
    <glyph glyph-name="agrave" unicode="&#xe0;" 
d="M130 607h-1q-10 -8 -10 -22q0 -12 7 -23t18 -15h-1l172 -70l-128 127q-13 12 -31 12q-15 0 -26 -9zM168 359q24 24 54 24q27 0 40 -19.5t13 -47.5v-55h-63q-35 0 -69 -10.5t-60.5 -30.5t-42 -48.5t-15.5 -63.5q0 -25 9 -48t24 -41t34 -28.5t38 -10.5q25 0 42 12l103 76
v-68h183l-60 59v257q0 55 -50 87.5t-120 32.5q-45 0 -81.5 -7.5t-71.5 -31.5v-127zM233 213h42v-91l-73 -54q-10 -5 -17 -5q-15 0 -28 13t-13 32q0 52 23.5 78.5t65.5 26.5z" />
    <glyph glyph-name="aacute" unicode="&#xe1;" 
d="M350 583q0 12 -8.5 22.5t-29.5 10.5q-18 0 -30 -12l-128 -127l172 70q24 10 24 36zM168 359q24 24 54 24q27 0 40 -19.5t13 -47.5v-55h-63q-35 0 -69 -10.5t-60.5 -30.5t-42 -48.5t-15.5 -63.5q0 -25 9 -48t24 -41t34 -28.5t38 -10.5q25 0 42 12l103 76v-68h183l-60 59
v257q0 55 -50 87.5t-120 32.5q-45 0 -81.5 -7.5t-71.5 -31.5v-127zM233 213h42v-91l-73 -54q-10 -5 -17 -5q-15 0 -28 13t-13 32q0 52 23.5 78.5t65.5 26.5z" />
    <glyph glyph-name="acircumflex" unicode="&#xe2;" 
d="M395 472l-161 161l-162 -161h18l144 61l143 -61h18zM168 359q24 24 54 24q27 0 40 -19.5t13 -47.5v-55h-63q-35 0 -69 -10.5t-60.5 -30.5t-42 -48.5t-15.5 -63.5q0 -25 9 -48t24 -41t34 -28.5t38 -10.5q25 0 42 12l103 76v-68h183l-60 59v257q0 55 -50 87.5t-120 32.5
q-45 0 -81.5 -7.5t-71.5 -31.5v-127zM233 213h42v-91l-73 -54q-10 -5 -17 -5q-15 0 -28 13t-13 32q0 52 23.5 78.5t65.5 26.5z" />
    <glyph glyph-name="atilde" unicode="&#xe3;" 
d="M151 484q9 15 16.5 22t19.5 7t28 -12q11 -8 20.5 -12.5t24.5 -4.5q32 0 65 27t39 67h-20q-16 -29 -35 -29q-11 0 -25 11q-10 9 -20.5 13.5t-28.5 4.5q-32 0 -65 -27t-39 -67h20zM168 359q24 24 54 24q27 0 40 -19.5t13 -47.5v-55h-63q-35 0 -69 -10.5t-60.5 -30.5
t-42 -48.5t-15.5 -63.5q0 -25 9 -48t24 -41t34 -28.5t38 -10.5q25 0 42 12l103 76v-68h183l-60 59v257q0 55 -50 87.5t-120 32.5q-45 0 -81.5 -7.5t-71.5 -31.5v-127zM233 213h42v-91l-73 -54q-10 -5 -17 -5q-15 0 -28 13t-13 32q0 52 23.5 78.5t65.5 26.5z" />
    <glyph glyph-name="adieresis" unicode="&#xe4;" 
d="M366 534q0 23 -16.5 39.5t-39.5 16.5t-39.5 -16.5t-16.5 -39.5t16.5 -39.5t39.5 -16.5t39.5 16.5t16.5 39.5zM211 535q0 23 -16.5 39.5t-39.5 16.5t-39.5 -16.5t-16.5 -39.5t16.5 -39.5t39.5 -16.5t39.5 16.5t16.5 39.5zM168 359q24 24 54 24q27 0 40 -19.5t13 -47.5v-55
h-63q-35 0 -69 -10.5t-60.5 -30.5t-42 -48.5t-15.5 -63.5q0 -25 9 -48t24 -41t34 -28.5t38 -10.5q25 0 42 12l103 76v-68h183l-60 59v257q0 55 -50 87.5t-120 32.5q-45 0 -81.5 -7.5t-71.5 -31.5v-127zM233 213h42v-91l-73 -54q-10 -5 -17 -5q-15 0 -28 13t-13 32
q0 52 23.5 78.5t65.5 26.5z" />
    <glyph glyph-name="aring" unicode="&#xe5;" 
d="M249 644q-35 0 -60 -25t-25 -61q0 -35 25 -60.5t60 -25.5q36 0 61 25.5t25 60.5q0 36 -25 61t-61 25zM224 558q0 11 7.5 18.5t17.5 7.5q11 0 18.5 -7.5t7.5 -18.5q0 -10 -7.5 -18t-18.5 -8q-10 0 -17.5 8t-7.5 18zM168 359q24 24 54 24q27 0 40 -19.5t13 -47.5v-55h-63
q-35 0 -69 -10.5t-60.5 -30.5t-42 -48.5t-15.5 -63.5q0 -25 9 -48t24 -41t34 -28.5t38 -10.5q25 0 42 12l103 76v-68h183l-60 59v257q0 55 -50 87.5t-120 32.5q-45 0 -81.5 -7.5t-71.5 -31.5v-127zM233 213h42v-91l-73 -54q-10 -5 -17 -5q-15 0 -28 13t-13 32
q0 52 23.5 78.5t65.5 26.5z" />
    <glyph glyph-name="ae" unicode="&#xe6;" horiz-adv-x="675" 
d="M164 -8l126 93q32 -45 74 -71.5t90 -26.5q65 0 109 17t88 66l-35 35q-10 -18 -26 -30.5t-32.5 -19t-32.5 -9.5t-29 -3q-70 0 -87.5 37.5t-17.5 136.5h271q0 48 -16 89.5t-44.5 71.5t-66.5 46t-81 16q-30 0 -58 -10.5t-52 -28.5q-24 17 -56 26t-67 9q-45 0 -81.5 -7.5
t-71.5 -31.5v-127l93 89q24 24 53 24q27 0 40.5 -19.5t13.5 -47.5v-55h-64q-35 0 -68.5 -10.5t-60 -30.5t-42 -48.5t-15.5 -63.5q0 -25 9 -48t24 -41t34 -28.5t38 -10.5q25 0 41 12zM225 213h43v-91l-74 -54q-10 -5 -16 -5q-16 0 -28.5 13t-12.5 32q0 51 23.5 78t64.5 27z
M391 270q0 50 15 84t48 34q28 0 51 -28.5t23 -56.5q0 -20 -10 -33h-127z" />
    <glyph glyph-name="ccedilla" unicode="&#xe7;" horiz-adv-x="419" 
d="M167 0l-71 -71h38q16 0 28 -9.5t12 -24.5q0 -17 -11.5 -25.5t-29.5 -8.5h-15v-24h15q50 0 91.5 20t41.5 55q0 23 -18.5 39t-44.5 18l20 18h10q53 0 89 14t74 48l-34 34q-20 -23 -44 -32t-49 -9q-54 0 -77 40t-23 130q0 46 1.5 74.5t8.5 49.5q14 47 60 47q25 0 38 -4.5
t28 -19.5l89 -89v127q-38 25 -72.5 32t-88.5 7q-41 0 -78.5 -18t-67 -50t-46 -72.5t-16.5 -83.5q0 -68 41 -127.5t101 -84.5z" />
    <glyph glyph-name="egrave" unicode="&#xe8;" horiz-adv-x="465" 
d="M115 607h-1q-10 -8 -10 -22q0 -12 7 -23t18 -15h-1l172 -70l-128 127q-13 12 -31 12q-15 0 -26 -9zM440 217q0 50 -16 91.5t-44.5 71t-66 45t-80.5 15.5q-44 0 -82.5 -18t-66.5 -50.5t-43.5 -74t-15.5 -85.5t16 -84.5t45 -72.5t67 -50t80 -18q76 0 120 22.5t76 60.5
l-32 33l-1 -1q-18 -25 -44.5 -42t-77.5 -17q-70 0 -87.5 37.5t-17.5 136.5h271zM169 269q0 50 15.5 84.5t48.5 34.5q28 0 51 -28.5t23 -56.5q0 -19 -10 -34h-128z" />
    <glyph glyph-name="eacute" unicode="&#xe9;" horiz-adv-x="465" 
d="M375 583q0 12 -8.5 22.5t-29.5 10.5q-18 0 -30 -12l-128 -127l172 70q24 10 24 36zM440 217q0 50 -16 91.5t-44.5 71t-66 45t-80.5 15.5q-44 0 -82.5 -18t-66.5 -50.5t-43.5 -74t-15.5 -85.5t16 -84.5t45 -72.5t67 -50t80 -18q76 0 120 22.5t76 60.5l-32 33l-1 -1
q-18 -25 -44.5 -42t-77.5 -17q-70 0 -87.5 37.5t-17.5 136.5h271zM169 269q0 50 15.5 84.5t48.5 34.5q28 0 51 -28.5t23 -56.5q0 -19 -10 -34h-128z" />
    <glyph glyph-name="ecircumflex" unicode="&#xea;" horiz-adv-x="465" 
d="M411 472l-161 161l-162 -161h18l144 61l143 -61h18zM440 217q0 50 -16 91.5t-44.5 71t-66 45t-80.5 15.5q-44 0 -82.5 -18t-66.5 -50.5t-43.5 -74t-15.5 -85.5t16 -84.5t45 -72.5t67 -50t80 -18q76 0 120 22.5t76 60.5l-32 33l-1 -1q-18 -25 -44.5 -42t-77.5 -17
q-70 0 -87.5 37.5t-17.5 136.5h271zM169 269q0 50 15.5 84.5t48.5 34.5q28 0 51 -28.5t23 -56.5q0 -19 -10 -34h-128z" />
    <glyph glyph-name="edieresis" unicode="&#xeb;" horiz-adv-x="465" 
d="M378 534q0 23 -16.5 39.5t-39.5 16.5t-39.5 -16.5t-16.5 -39.5t16.5 -39.5t39.5 -16.5t39.5 16.5t16.5 39.5zM223 535q0 23 -16.5 39.5t-39.5 16.5t-39.5 -16.5t-16.5 -39.5t16.5 -39.5t39.5 -16.5t39.5 16.5t16.5 39.5zM440 217q0 50 -16 91.5t-44.5 71t-66 45
t-80.5 15.5q-44 0 -82.5 -18t-66.5 -50.5t-43.5 -74t-15.5 -85.5t16 -84.5t45 -72.5t67 -50t80 -18q76 0 120 22.5t76 60.5l-32 33l-1 -1q-18 -25 -44.5 -42t-77.5 -17q-70 0 -87.5 37.5t-17.5 136.5h271zM169 269q0 50 15.5 84.5t48.5 34.5q28 0 51 -28.5t23 -56.5
q0 -19 -10 -34h-128z" />
    <glyph glyph-name="igrave" unicode="&#xec;" horiz-adv-x="271" 
d="M44 607h-1q-10 -8 -10 -22q0 -12 7 -23t18 -15h-1l172 -70l-128 127q-13 12 -31 12q-15 0 -26 -9zM265 0l-59 59v372l-181 -62l58 -57v-253l-60 -59h242z" />
    <glyph glyph-name="iacute" unicode="&#xed;" horiz-adv-x="271" 
d="M270 583q0 12 -8.5 22.5t-29.5 10.5q-18 0 -30 -12l-128 -127l172 70q24 10 24 36zM265 0l-59 59v372l-181 -62l58 -57v-253l-60 -59h242z" />
    <glyph glyph-name="icircumflex" unicode="&#xee;" horiz-adv-x="271" 
d="M315 472l-161 161l-162 -161h18l144 61l143 -61h18zM265 0l-59 59v372l-181 -62l58 -57v-253l-60 -59h242z" />
    <glyph glyph-name="idieresis" unicode="&#xef;" horiz-adv-x="271" 
d="M286 534q0 23 -16.5 39.5t-39.5 16.5t-39.5 -16.5t-16.5 -39.5t16.5 -39.5t39.5 -16.5t39.5 16.5t16.5 39.5zM131 535q0 23 -16.5 39.5t-39.5 16.5t-39.5 -16.5t-16.5 -39.5t16.5 -39.5t39.5 -16.5t39.5 16.5t16.5 39.5zM265 0l-59 59v372l-181 -62l58 -57v-253l-60 -59
h242z" />
    <glyph glyph-name="eth" unicode="&#xf0;" horiz-adv-x="483" 
d="M233 36q-36 0 -56 38t-20 93q0 28 1.5 50t9 44t24 36.5t43.5 14.5q28 0 57 -19t36 -45q1 -2 2 -11t1 -26q0 -175 -98 -175zM238 514l-114 -92h95l54 43q33 -61 48 -156q-18 28 -44.5 44t-63.5 16q-34 0 -67.5 -13t-61 -37.5t-43.5 -60t-16 -78.5q0 -41 19 -76.5t51 -62
t68.5 -40.5t69.5 -14q102 0 161.5 66t59.5 170q0 82 -30 162t-84 135l102 83h-95l-53 -43q-63 44 -138 44q-13 0 -25 -1l-10 -30q2 -1 11 -2q27 -6 53 -17t53 -40z" />
    <glyph glyph-name="ntilde" unicode="&#xf1;" horiz-adv-x="521" 
d="M205 484q9 15 16.5 22t19.5 7t28 -12q11 -8 20.5 -12.5t24.5 -4.5q32 0 65 27t39 67h-20q-16 -29 -35 -29q-11 0 -25 11q-10 9 -20.5 13.5t-28.5 4.5q-32 0 -65 -27t-39 -67h20zM227 385l-36 -36v82l-181 -62l58 -57v-253l-60 -59h242l-59 59v226l41 41q36 37 64 37
q21 0 31.5 -13.5t10.5 -29.5v-320h183l-59 59v274q0 37 -33 72.5t-87 35.5q-25 0 -54.5 -13t-60.5 -43z" />
    <glyph glyph-name="ograve" unicode="&#xf2;" horiz-adv-x="507" 
d="M165 607h-1q-10 -8 -10 -22q0 -12 7 -23t18 -15h-1l172 -70l-128 127q-13 12 -31 12q-15 0 -26 -9zM25 212q0 -46 17.5 -88t49.5 -74t73.5 -49.5t87.5 -17.5q47 0 88.5 17.5t73.5 49.5t49.5 74t17.5 88t-17.5 88t-49.5 73.5t-73.5 49t-88.5 17.5q-46 0 -87.5 -17.5
t-73.5 -49t-49.5 -73.5t-17.5 -88zM253 32q-27 0 -44 16t-25.5 42.5t-11.5 56.5t-3 65t3 65t11.5 56.5t25.5 42.5t44 16t44 -16t26 -42.5t12 -56.5t3 -65t-3 -65t-12 -56.5t-26 -42.5t-44 -16z" />
    <glyph glyph-name="oacute" unicode="&#xf3;" horiz-adv-x="507" 
d="M383 583q0 12 -8.5 22.5t-29.5 10.5q-18 0 -30 -12l-128 -127l172 70q24 10 24 36zM25 212q0 -46 17.5 -88t49.5 -74t73.5 -49.5t87.5 -17.5q47 0 88.5 17.5t73.5 49.5t49.5 74t17.5 88t-17.5 88t-49.5 73.5t-73.5 49t-88.5 17.5q-46 0 -87.5 -17.5t-73.5 -49
t-49.5 -73.5t-17.5 -88zM253 32q-27 0 -44 16t-25.5 42.5t-11.5 56.5t-3 65t3 65t11.5 56.5t25.5 42.5t44 16t44 -16t26 -42.5t12 -56.5t3 -65t-3 -65t-12 -56.5t-26 -42.5t-44 -16z" />
    <glyph glyph-name="ocircumflex" unicode="&#xf4;" horiz-adv-x="507" 
d="M428 472l-161 161l-162 -161h18l144 61l143 -61h18zM25 212q0 -46 17.5 -88t49.5 -74t73.5 -49.5t87.5 -17.5q47 0 88.5 17.5t73.5 49.5t49.5 74t17.5 88t-17.5 88t-49.5 73.5t-73.5 49t-88.5 17.5q-46 0 -87.5 -17.5t-73.5 -49t-49.5 -73.5t-17.5 -88zM253 32
q-27 0 -44 16t-25.5 42.5t-11.5 56.5t-3 65t3 65t11.5 56.5t25.5 42.5t44 16t44 -16t26 -42.5t12 -56.5t3 -65t-3 -65t-12 -56.5t-26 -42.5t-44 -16z" />
    <glyph glyph-name="otilde" unicode="&#xf5;" horiz-adv-x="507" 
d="M176 484q9 15 16.5 22t19.5 7t28 -12q11 -8 20.5 -12.5t24.5 -4.5q32 0 65 27t39 67h-20q-16 -29 -35 -29q-11 0 -25 11q-10 9 -20.5 13.5t-28.5 4.5q-32 0 -65 -27t-39 -67h20zM25 212q0 -46 17.5 -88t49.5 -74t73.5 -49.5t87.5 -17.5q47 0 88.5 17.5t73.5 49.5t49.5 74
t17.5 88t-17.5 88t-49.5 73.5t-73.5 49t-88.5 17.5q-46 0 -87.5 -17.5t-73.5 -49t-49.5 -73.5t-17.5 -88zM253 32q-27 0 -44 16t-25.5 42.5t-11.5 56.5t-3 65t3 65t11.5 56.5t25.5 42.5t44 16t44 -16t26 -42.5t12 -56.5t3 -65t-3 -65t-12 -56.5t-26 -42.5t-44 -16z" />
    <glyph glyph-name="odieresis" unicode="&#xf6;" horiz-adv-x="507" 
d="M396 534q0 23 -16.5 39.5t-39.5 16.5t-39.5 -16.5t-16.5 -39.5t16.5 -39.5t39.5 -16.5t39.5 16.5t16.5 39.5zM241 535q0 23 -16.5 39.5t-39.5 16.5t-39.5 -16.5t-16.5 -39.5t16.5 -39.5t39.5 -16.5t39.5 16.5t16.5 39.5zM25 212q0 -46 17.5 -88t49.5 -74t73.5 -49.5
t87.5 -17.5q47 0 88.5 17.5t73.5 49.5t49.5 74t17.5 88t-17.5 88t-49.5 73.5t-73.5 49t-88.5 17.5q-46 0 -87.5 -17.5t-73.5 -49t-49.5 -73.5t-17.5 -88zM253 32q-27 0 -44 16t-25.5 42.5t-11.5 56.5t-3 65t3 65t11.5 56.5t25.5 42.5t44 16t44 -16t26 -42.5t12 -56.5t3 -65
t-3 -65t-12 -56.5t-26 -42.5t-44 -16z" />
    <glyph glyph-name="divide" unicode="&#xf7;" horiz-adv-x="0" 
 />
    <glyph glyph-name="oslash" unicode="&#xf8;" horiz-adv-x="507" 
d="M28 212q0 -56 25 -104.5t68 -79.5l-38 -70h55l25 45q48 -20 93 -20q46 0 88 17.5t73.5 49.5t49 74t17.5 88q0 57 -26 106.5t-71 79.5l38 67h-60l-23 -42q-42 17 -86 17q-46 0 -88 -17.5t-73.5 -49t-49 -73.5t-17.5 -88zM198 63q7 12 55.5 98t58.5 104.5t21 37.5
q7 -41 7 -91q0 -35 -3 -65t-11.5 -56.5t-25.5 -42.5t-44 -16q-19 0 -32 8t-26 23zM310 367q-7 -12 -26 -46.5t-31 -56.5l-76 -136q-5 34 -5 84q0 35 3 65t11.5 56.5t25.5 42.5t44 16q31 0 54 -25z" />
    <glyph glyph-name="ugrave" unicode="&#xf9;" horiz-adv-x="494" 
d="M157 603h-1q-10 -8 -10 -22q0 -12 7 -23t18 -15h-1l172 -70l-128 127q-13 12 -31 12q-15 0 -26 -9zM0 369l58 -57v-225q0 -35 30.5 -67.5t79.5 -32.5q25 0 51.5 11t56.5 40l36 36v-74h182l-59 59v372l-181 -62l58 -57v-174l-41 -40q-31 -32 -55 -32q-18 0 -26.5 12
t-8.5 25v328z" />
    <glyph glyph-name="uacute" unicode="&#xfa;" horiz-adv-x="494" 
d="M400 579q0 12 -8.5 22.5t-29.5 10.5q-18 0 -30 -12l-128 -127l172 70q24 10 24 36zM0 369l58 -57v-225q0 -35 30.5 -67.5t79.5 -32.5q25 0 51.5 11t56.5 40l36 36v-74h182l-59 59v372l-181 -62l58 -57v-174l-41 -40q-31 -32 -55 -32q-18 0 -26.5 12t-8.5 25v328z" />
    <glyph glyph-name="ucircumflex" unicode="&#xfb;" horiz-adv-x="494" 
d="M432 472l-161 161l-162 -161h18l144 61l143 -61h18zM0 369l58 -57v-225q0 -35 30.5 -67.5t79.5 -32.5q25 0 51.5 11t56.5 40l36 36v-74h182l-59 59v372l-181 -62l58 -57v-174l-41 -40q-31 -32 -55 -32q-18 0 -26.5 12t-8.5 25v328z" />
    <glyph glyph-name="udieresis" unicode="&#xfc;" horiz-adv-x="494" 
d="M394 534q0 23 -16.5 39.5t-39.5 16.5t-39.5 -16.5t-16.5 -39.5t16.5 -39.5t39.5 -16.5t39.5 16.5t16.5 39.5zM239 535q0 23 -16.5 39.5t-39.5 16.5t-39.5 -16.5t-16.5 -39.5t16.5 -39.5t39.5 -16.5t39.5 16.5t16.5 39.5zM0 369l58 -57v-225q0 -35 30.5 -67.5t79.5 -32.5
q25 0 51.5 11t56.5 40l36 36v-74h182l-59 59v372l-181 -62l58 -57v-174l-41 -40q-31 -32 -55 -32q-18 0 -26.5 12t-8.5 25v328z" />
    <glyph glyph-name="yacute" unicode="&#xfd;" 
d="M380 585q0 12 -8.5 22.5t-29.5 10.5q-18 0 -30 -12l-128 -127l172 70q24 10 24 36zM51 356l152 -355l-44 -109l-81 -59h205l-58 59l191 464l59 59h-183l58 -58l-82 -202l-89 202l59 58h-246z" />
    <glyph glyph-name="thorn" unicode="&#xfe;" horiz-adv-x="498" 
d="M183 308q8 31 30 49.5t54 18.5q38 0 50.5 -38.5t12.5 -124.5t-12.5 -125t-50.5 -39q-32 0 -54 18.5t-30 50.5v190zM59 514v-622l-59 -59h242l-59 59v160q20 -29 52 -49t68 -20q39 0 71 20.5t54 54t34 74.5t12 81t-12 80.5t-34.5 74.5t-54 54t-70.5 20q-36 0 -68 -20
t-52 -49v260l-181 -61z" />
    <glyph glyph-name="ydieresis" unicode="&#xff;" 
d="M396 534q0 23 -16.5 39.5t-39.5 16.5t-39.5 -16.5t-16.5 -39.5t16.5 -39.5t39.5 -16.5t39.5 16.5t16.5 39.5zM241 535q0 23 -16.5 39.5t-39.5 16.5t-39.5 -16.5t-16.5 -39.5t16.5 -39.5t39.5 -16.5t39.5 16.5t16.5 39.5zM51 356l152 -355l-44 -109l-81 -59h205l-58 59
l191 464l59 59h-183l58 -58l-82 -202l-89 202l59 58h-246z" />
    <glyph glyph-name="OE" unicode="&#x152;" horiz-adv-x="779" 
d="M25 295q0 -59 18.5 -115t52.5 -100.5t82 -70.5t105 -26q37 0 64.5 10t60.5 33v-26h353v141l-80 -80h-149v222h103l63 -63v188l-63 -64h-103v185h149l80 -80v141h-353v-26q-33 23 -60.5 33t-64.5 10q-57 0 -104.5 -26t-82 -70.5t-53 -100.5t-18.5 -115zM283 44
q-37 0 -60.5 22.5t-35 59t-15 77.5t-3.5 92t3.5 92t15 77.5t35 59t60.5 22.5q38 0 63 -22.5t38.5 -59t18.5 -79.5t5 -90t-5 -90t-18.5 -79.5t-38.5 -59t-63 -22.5z" />
    <glyph glyph-name="oe" unicode="&#x153;" horiz-adv-x="771" 
d="M253 -17q42 0 82 15.5t73 46.5q35 -30 66.5 -44t70.5 -14q64 0 110.5 18.5t86.5 64.5l-35 35q-17 -29 -50 -45t-71 -16q-20 0 -40 4q-22 5 -35.5 19.5t-19.5 37t-7.5 48.5t-1.5 64h271q0 50 -16 91.5t-45 71t-67 45t-80 15.5q-35 0 -73 -15t-67 -44q-66 59 -152 59
q-46 0 -87.5 -17.5t-73.5 -49t-49.5 -73.5t-17.5 -88t17.5 -88t49.5 -74t73.5 -49.5t87.5 -17.5zM482 270q0 48 15 83t48 35q29 0 51 -27.5t22 -58.5q0 -18 -9 -32h-127zM253 32q-27 0 -44 16t-25.5 42.5t-11.5 56.5t-3 65t3 65t11.5 56.5t25.5 42.5t44 16t44 -16t26 -42.5
t12 -56.5t3 -65t-3 -65t-12 -56.5t-26 -42.5t-44 -16z" />
    <glyph glyph-name="Scaron" unicode="&#x160;" horiz-adv-x="421" 
d="M85 757l133 -132l132 132h-18l-114 -61l-114 61h-19zM403 170q0 49 -22 83t-53 53l-142 87q-28 18 -41.5 40t-13.5 43q0 24 21.5 46t55.5 22q23 0 45 -14l69 -74l63 112l-129 22q-12 2 -28 3.5t-27 1.5q-46 0 -80.5 -13.5t-57 -36.5t-33 -51.5t-10.5 -59.5q0 -15 4 -33
t14 -39t28.5 -41.5t45.5 -36.5l141 -87q15 -10 25 -26t10 -41q0 -44 -27.5 -68t-61.5 -24q-30 0 -54 18l-74 83l-63 -121l134 -22q26 -5 63 -5q51 0 89.5 15t62.5 40.5t35 57t11 66.5z" />
    <glyph glyph-name="scaron" unicode="&#x161;" horiz-adv-x="354" 
d="M63 611l133 -132l132 132h-18l-114 -61l-114 61h-19zM287 232l-142 79q-14 8 -18 16t-4 14q0 25 21 41t44 16q22 0 32 -13l57 -74l63 90l-117 35q-26 7 -50 7q-60 0 -104 -38t-44 -108q0 -29 12.5 -55.5t41.5 -41.5l154 -79q6 -4 10.5 -10t4.5 -18q0 -29 -22.5 -49.5
t-47.5 -20.5q-15 0 -25.5 5.5t-14.5 9.5l-61 79l-68 -90l125 -40q6 -2 21.5 -4.5t33.5 -2.5q67 0 110 40.5t43 106.5q0 39 -16 65.5t-39 39.5z" />
    <glyph glyph-name="Ydieresis" unicode="&#x178;" horiz-adv-x="504" 
d="M427 689q0 23 -16.5 39.5t-39.5 16.5t-39.5 -16.5t-16.5 -39.5t16.5 -39.5t39.5 -16.5t39.5 16.5t16.5 39.5zM272 690q0 23 -16.5 39.5t-39.5 16.5t-39.5 -16.5t-16.5 -39.5t16.5 -39.5t39.5 -16.5t39.5 16.5t16.5 39.5zM48 526l149 -260v-203l-64 -63h250l-63 63v203
l145 260l64 64h-196l63 -62l-104 -192l-104 192l62 62h-267z" />
    <glyph glyph-name="florin" unicode="&#x192;" horiz-adv-x="342" 
d="M44 -167q35 0 65 14.5t52.5 39.5t34.5 57.5t12 67.5v355h100v52h-100v95q0 22 12.5 38t32.5 23l68 -68l85 116h-158q-35 0 -65 -14.5t-52.5 -39.5t-34.5 -57t-12 -67v-27l-67 -68h67v-408q0 -21 -12 -37t-33 -23l-68 68l-85 -117h158z" />
    <glyph glyph-name="circumflex" unicode="&#x2c6;" horiz-adv-x="333" 
d="M348 522l-161 161l-162 -161h18l144 61l143 -61h18z" />
    <glyph glyph-name="tilde" unicode="&#x2dc;" horiz-adv-x="292" 
d="M70 592q9 15 16.5 22t19.5 7t28 -12q11 -8 20.5 -12.5t24.5 -4.5q32 0 65 27t39 67h-20q-16 -29 -35 -29q-11 0 -25 11q-10 9 -20.5 13.5t-28.5 4.5q-32 0 -65 -27t-39 -67h20z" />
    <glyph glyph-name="endash" unicode="&#x2013;" horiz-adv-x="650" 
d="M0 204h650v61h-650v-61z" />
    <glyph glyph-name="emdash" unicode="&#x2014;" horiz-adv-x="704" 
d="M0 204h704v61h-704v-61z" />
    <glyph glyph-name="quoteleft" unicode="&#x2018;" horiz-adv-x="229" 
d="M57 538l116 -167v194q0 25 -18 44t-43 19q-28 0 -45.5 -19.5t-17.5 -42.5q0 -16 8 -28z" />
    <glyph glyph-name="quoteright" unicode="&#x2019;" horiz-adv-x="229" 
d="M180 538q8 12 8 28q0 23 -17.5 42.5t-45.5 19.5q-25 0 -43.5 -19t-18.5 -44v-194z" />
    <glyph glyph-name="quotesinglbase" unicode="&#x201a;" horiz-adv-x="550" 
d="M30 295q0 -58 17 -114t48.5 -100.5t77.5 -71t102 -26.5t102 26.5t78 71t48.5 100.5t16.5 114t-16.5 114t-48.5 100.5t-78 71t-102 26.5t-102 -26t-78 -71t-48.5 -101t-16.5 -114zM275 44q-36 0 -58 22.5t-32 59t-12.5 75.5t-2.5 94t2.5 94.5t12.5 75.5t32 58.5t58 22.5
t58 -22.5t32 -59t12.5 -75.5t2.5 -94t-2.5 -94t-12.5 -75.5t-32 -59t-58 -22.5z" />
    <glyph glyph-name="quotedblleft" unicode="&#x201c;" horiz-adv-x="415" 
d="M247 538l116 -167v194q0 25 -18 44t-43 19q-28 0 -45.5 -19.5t-17.5 -42.5q0 -16 8 -28zM68 538l116 -167v194q0 25 -18 44t-43 19q-28 0 -45.5 -19.5t-17.5 -42.5q0 -16 8 -28z" />
    <glyph glyph-name="quotedblright" unicode="&#x201d;" horiz-adv-x="415" 
d="M180 538q8 12 8 28q0 23 -17.5 42.5t-45.5 19.5q-25 0 -43.5 -19t-18.5 -44v-194zM359 538q8 12 8 28q0 23 -17.5 42.5t-45.5 19.5q-25 0 -43 -19t-18 -44v-194z" />
    <glyph glyph-name="quotedblbase" unicode="&#x201e;" horiz-adv-x="415" 
d="M163 27q8 12 8 28q0 23 -17.5 42.5t-45.5 19.5q-25 0 -43 -19t-18 -44v-194zM343 27q8 12 8 27q0 24 -18 43.5t-45 19.5q-25 0 -43.5 -18.5t-18.5 -44.5v-194z" />
    <glyph glyph-name="dagger" unicode="&#x2020;" horiz-adv-x="398" 
d="M88 590l64 -63v-145h-62l-63 63v-212l63 63h62v-463h94v463h62l63 -63v212l-63 -63h-62v145l63 63h-221z" />
    <glyph glyph-name="daggerdbl" unicode="&#x2021;" horiz-adv-x="408" 
d="M26 424l59 59h209l-208 -483h122v57l185 533h-367v-166z" />
    <glyph glyph-name="bullet" unicode="&#x2022;" horiz-adv-x="315" 
d="M257 337q0 41 -29 70t-70 29t-70.5 -29t-29.5 -70t29.5 -70t70.5 -29t70 29t29 70z" />
    <glyph glyph-name="ellipsis" unicode="&#x2026;" horiz-adv-x="833" 
d="M121 -8q28 0 47.5 19.5t19.5 46.5q0 28 -19.5 47.5t-47.5 19.5t-47.5 -19.5t-19.5 -47.5q0 -27 19.5 -46.5t47.5 -19.5zM392 -8q27 0 46.5 19.5t19.5 46.5q0 28 -19.5 47.5t-46.5 19.5q-28 0 -47.5 -19.5t-19.5 -47.5q0 -27 19.5 -46.5t47.5 -19.5zM663 -8
q27 0 46.5 19.5t19.5 46.5q0 28 -19.5 47.5t-46.5 19.5q-28 0 -47.5 -19.5t-19.5 -47.5q0 -27 19.5 -46.5t47.5 -19.5z" />
    <glyph glyph-name="perthousand" unicode="&#x2030;" horiz-adv-x="750" 
d="M238 116q0 -47 34.5 -81.5t81.5 -34.5q48 0 82 34.5t34 81.5t-34 81.5t-82 34.5q-47 0 -81.5 -34.5t-34.5 -81.5zM505 116q0 -47 34.5 -81.5t81.5 -34.5t81.5 34.5t34.5 81.5t-34.5 81.5t-81.5 34.5t-81.5 -34.5t-34.5 -81.5zM129 358q48 0 82 34.5t34 81.5q0 36 -23 68
h131l-290 -409v-133h49v45l312 442v103h-295q-47 0 -81.5 -34t-34.5 -82q0 -47 34.5 -81.5t81.5 -34.5zM354 28q-23 0 -30.5 24.5t-7.5 63.5t7.5 63.5t30.5 24.5t31 -25t8 -63t-8 -63t-31 -25zM621 28q-23 0 -30.5 24.5t-7.5 63.5t7.5 63.5t30.5 24.5t30.5 -24.5t7.5 -63.5
t-7.5 -63.5t-30.5 -24.5zM129 386q-23 0 -30.5 24.5t-7.5 63.5t7.5 64t30.5 25t31 -25t8 -64q0 -38 -8 -63t-31 -25z" />
    <glyph glyph-name="guilsinglleft" unicode="&#x2039;" horiz-adv-x="388" 
d="M84 305q26 0 51 -10t44.5 -28t31 -42t11.5 -51q0 -29 -13 -54t-36 -43t-51.5 -27.5t-58.5 -9.5h-41v-40h41q52 0 103 9.5t93.5 30.5t68 54.5t25.5 79.5q0 56 -37.5 94.5t-95.5 52.5q53 15 83.5 56t30.5 91q0 60 -48.5 98t-124.5 38q-68 0 -121 -31l-24 -15l29 -30
q6 4 21 10.5t37 6.5q49 0 77 -29.5t28 -63.5q0 -19 -8.5 -39.5t-24.5 -38t-39.5 -28.5t-51.5 -11v-30z" />
    <glyph glyph-name="guilsinglright" unicode="&#x203a;" horiz-adv-x="446" 
d="M421 0l-59 59v108h62v61h-62v370h-59l-285 -397v-2v-32h220v-108l-59 -59h242zM238 228h-124l124 174v-174z" />
    <glyph glyph-name="trademark" unicode="&#x2122;" horiz-adv-x="725" 
d="M428 263l-38 36v211l96 -170l95 170v-211l-38 -36h145l-36 36v254l36 37h-105l-79 -140l-79 140h-112l36 -37v-254l-36 -36h115zM196 299v254h42l47 -45v82h-250v-82l47 45h43v-254l-37 -36h145z" />
    </font>
</defs>
</svg>
